<svg xmlns="http://www.w3.org/2000/svg" viewBox="0 0 141.7 60.4" class="dark:text-white"><path d="M6.6 39.6c4 0 6.5 2.5 6.5 6.6v3.3c0 4.2-2.5 6.6-6.5 6.6S0 53.7 0 49.5v-3.3c0-4.1 2.5-6.6 6.6-6.6zM3 49.7c0 2.3 1.1 3.7 3.6 3.7s3.5-1.5 3.5-3.7V46c0-2.2-1.3-3.8-3.5-3.8A3.5 3.5 0 003 46zM15.1 44.5h2.8v1.6h.3a4 4 0 013.6-1.9c2.8 0 5.2 2.5 5.2 6s-2.4 5.9-5.2 5.9a3.8 3.8 0 01-3.6-1.9h-.3v6.2h-2.8zm9 5.7c0-2.2-1.3-3.5-3.1-3.5s-3.1 1.3-3.1 3.5a3.1 3.1 0 003.1 3.4 3.1 3.1 0 003.1-3.4zM33.8 44.2c3.3 0 5.5 2.3 5.5 5.7V51h-8.2a2.8 2.8 0 002.8 2.7 3.1 3.1 0 002.9-1.7l2.3 1.3a5.6 5.6 0 01-5.1 2.8 5.7 5.7 0 01-5.8-6 5.5 5.5 0 015.6-5.9zm2.6 4.8a2.4 2.4 0 00-2.6-2.3 2.5 2.5 0 00-2.7 2.3zM43.9 44.5v1.8h.3a3.7 3.7 0 013.6-2c2.5 0 4.4 1.8 4.4 4.8v6.7h-2.9v-6.5a2.3 2.3 0 00-2.5-2.5C45 46.8 44 48 44 50v5.8h-2.9V44.5zM56.6 39.9l1.9 13h.3l2.4-13h4.7l2.4 13h.3l1.9-13h3L71 55.8h-4.9l-2.4-13h-.3l-2.4 13h-4.9l-2.5-15.9zM79.7 44.2c3.2 0 5.4 2.3 5.4 5.7V51h-8.2a2.8 2.8 0 002.9 2.7 3.1 3.1 0 002.8-1.7l2.3 1.3a5.6 5.6 0 01-5.1 2.8 5.7 5.7 0 01-5.8-6 5.6 5.6 0 015.7-5.9zm2.5 4.8a2.4 2.4 0 00-2.6-2.3A2.3 2.3 0 0077 49zM92 44.2c3 0 5.2 1.7 5.2 4.5v7.1h-2.9v-1.6H94c-.3.8-1.1 1.9-3.5 1.9s-4.3-1.3-4.3-3.5 1.6-3.1 3.8-3.3l4.3-.5v-.3c0-1.1-.8-2-2.4-2a3.2 3.2 0 00-3.1 2.2l-2.3-1.4a6.4 6.4 0 015.5-3.1zm-.8 9.6c2 0 3.1-1.2 3.1-2.8v-.2l-3.5.4c-1 .1-1.6.6-1.6 1.2s.7 1.4 2 1.4zM101 44.5V41h2.9v3.5h3.1v2.4h-3.1v5.8c0 .5.2.7.6.7h1.9v2.4h-3.1a2.2 2.2 0 01-2.3-2.2v-6.7h-2.8v-2.4zM111.8 39.9v6.4h.3a3.5 3.5 0 013.5-2c2.5 0 4.4 1.8 4.4 4.8v6.7h-2.8v-6.5a2.4 2.4 0 00-2.6-2.5c-1.8 0-2.8 1.2-2.8 3.2v5.8h-2.9V39.9zM127.4 44.2c3.3 0 5.5 2.3 5.5 5.7V51h-8.2a2.8 2.8 0 002.8 2.7 2.9 2.9 0 002.8-1.7l2.4 1.3a5.6 5.6 0 01-5.1 2.8 5.8 5.8 0 01-5.9-6 5.6 5.6 0 015.7-5.9zM130 49a2.5 2.5 0 00-2.6-2.3 2.5 2.5 0 00-2.7 2.3zM137.5 46.2h.3a2.6 2.6 0 012.8-1.7h1.1V47H140a2.2 2.2 0 00-2.5 2.3v6.5h-2.8V44.5h2.8z" fill="currentColor"></path><path d="M53.7 22.9a1.5 1.5 0 01-1.5 1.5H36.6a1.5 1.5 0 00-1.5 1.6 1.5 1.5 0 001.5 1.5h.6a1.5 1.5 0 011.5 1.5 1.5 1.5 0 01-1.5 1.5h-1.8a1.5 1.5 0 00-1.5 1.5 1.5 1.5 0 001.5 1.5h10.1a1.5 1.5 0 011.5 1.8 1.5 1.5 0 01-1.5 1.5H18.6a1.5 1.5 0 01-1.5-1.5 1.5 1.5 0 011.5-1.5H25a1.5 1.5 0 001.5-1.5 1.5 1.5 0 00-1.5-1.6h-9.6a1.5 1.5 0 01-1.5-1.5c0-.2.1-.4.1-.6a1.7 1.7 0 011.4-.9h.5a1.5 1.5 0 001.5-1.5 1.5 1.5 0 00-1.5-1.5h-5.8A1.5 1.5 0 018.6 23a1.5 1.5 0 011.5-1.5h1.2a13.6 13.6 0 01-.3-2.9 18.5 18.5 0 0137 0 13.6 13.6 0 01-.3 2.9h4.5a1.5 1.5 0 011.5 1.4z" fill="#e56d44"></path><path d="M56 29.1a1.5 1.5 0 01-1.5 1.5h-3.3a1.5 1.5 0 01-1.5-1.5 1.5 1.5 0 011.5-1.5h3.3a1.5 1.5 0 011.5 1.5zM47.2 29.1a1.5 1.5 0 01-1.5 1.5h-3.3a1.5 1.5 0 01-1.5-1.5 1.5 1.5 0 011.5-1.5h3.3a1.5 1.5 0 011.5 1.5z" fill="#e56d44"></path></svg>