<?xml version="1.0" encoding="UTF-8" standalone="no"?>
<svg xmlns="http://www.w3.org/2000/svg" xmlns:xlink="http://www.w3.org/1999/xlink" width="10cm" height="10cm">
  <defs>
    <linearGradient id="a">
      <stop offset="0" stop-opacity=".50515461"/>
      <stop offset="1" stop-opacity="0"/>
    </linearGradient>
    <linearGradient xlink:href="#a" id="i" x1="156.33753" x2="264.5692" y1="184.92068" y2="184.92068" gradientTransform="scale(1.19593 .83617)" gradientUnits="userSpaceOnUse"/>
    <linearGradient id="d">
      <stop offset="0" stop-color="#fff"/>
      <stop offset="1" stop-color="#fff" stop-opacity="0"/>
    </linearGradient>
    <linearGradient xlink:href="#b" id="g" x1="414.13153" x2="302.99097" y1="240.14357" y2="240.80186" gradientTransform="scale(.6891 1.45116)" gradientUnits="userSpaceOnUse"/>
    <linearGradient id="b">
      <stop offset="0" stop-color="#3f3318"/>
      <stop offset="1" stop-color="#815f0e"/>
    </linearGradient>
    <linearGradient xlink:href="#b" id="f" x1="299.37338" x2="411.72696" y1="252.27031" y2="252.27031" gradientTransform="matrix(.6976 0 0 1.47183 0 -11.82638)" gradientUnits="userSpaceOnUse"/>
    <linearGradient id="c">
      <stop offset="0" stop-color="#747474"/>
      <stop offset=".5" stop-color="#bebebe"/>
      <stop offset=".625" stop-color="#d5d5d5"/>
      <stop offset=".75" stop-color="#818181"/>
      <stop offset="1" stop-color="#c3c3c3"/>
    </linearGradient>
    <linearGradient xlink:href="#c" id="e" x1="150.49463" x2="345.53265" y1="42.808048" y2="242.17987" gradientTransform="scale(1.00007 .99993)" gradientUnits="userSpaceOnUse"/>
    <radialGradient xlink:href="#d" id="h" cx="212.59842" cy="70.866119" r="35.433071" fx="212.59842" fy="70.866119" gradientUnits="userSpaceOnUse"/>
  </defs>
  <g display="block">
    <path fill="#fff" fill-rule="evenodd" stroke="#000" stroke-width="6.25" d="m17.61491 18.292406 70.967767 17.140645 70.866143-17.716536 70.86614 17.716536 70.86614-17.716536 17.71654 70.866142L301.1811 159.4488l17.71654 70.86614-17.71654 70.86614-70.86614 17.71654-70.86614-17.71654-70.866143 17.71654-70.866142-17.71654 17.716536-70.86614-17.716536-70.86614 17.716536-70.866143L17.61491 18.292406z"/>
    <path fill="#e3ffc5" fill-rule="evenodd" stroke="#000" stroke-width=".25pt" d="m19.6474 302.16346 15.785671-71.84852-17.716536-70.86614 17.716536-70.866143-17.716536-70.866142 70.866142 17.716536 70.866143-17.716536 70.86614 17.716536 70.86614-17.716536 17.71654 70.866142L301.1811 159.4488l17.71654 70.86614-17.71654 70.86614-70.86614 17.71654-70.86614-17.71654-70.866143 17.71654L19.6474 302.16346z"/>
    <path fill="#91d55d" fill-rule="evenodd" d="M194.88189 141.73226v-6.91045c0-9.9373-1.75844-10.80608-11.28033-10.80608-14.71657 0 2.63407 17.71653-15.58242 17.71653-14.82703 0 12.76403-34.66176-54.87722 6.63948-13.554632 8.27636-6.07952-6.63948 2.03249-6.63948 12.29297 0 12.26577-17.71653.6775-17.71653-3.84847 0 8.16384-4.31536 8.16384-8.16382 0-7.7907 28.90582-16.937416 10.80606-16.937416-7.28451 0-10.80606 13.232566-10.80606-4.064979 0-8.114108 16.55681-15.950906 0-17.61491-2.11219-.21228 0-4.245656 0-6.368483 0-3.624609-14.49844 0-10.87383 0 9.94773 0 10.87383-1.698577 10.87383-11.246427 0-5.443473-29.132593-13.77462-10.87383-15.58242 46.12604-4.566939 12.59477-26.32076 46.3069-26.32076 11.33657 0-17.71654 17.694179-17.71654 29.030746 0 15.452644 17.71654-3.402759 17.71654 14.904924 0 19.150103 27.26765 16.937413 45.83263 16.937413h7.31698c5.19414 0 0-10.38828 0-15.58242 0-14.425959 46.12091-23.723476 42.14027-9.857592-1.83619 6.396028-17.33541 7.064172-24.42374 9.180095-12.72176 3.797548 39.94853 54.199719 9.51881 54.199719-15.31872 0-5.45973-10.23021-19.6474-10.23021-8.00013 0 27.84513 17.32179 27.84513 35.43307 0 10.99808-24.69128-6.8367-35.43307-8.94294-4.52732-.88771-6.09094-8.77359-10.70446-8.77359-22.0876 0 10.70446 30.54942 10.70446 35.43307 0 2.30348 4.60696 0 6.91045 0 5.23125 0-24.62699 7.68255-24.62699-9.72207v-7.99447z"/>
    <path fill="#72acff" fill-rule="evenodd" d="M159.44882 141.73226c11.88325.20054 17.71653 1.92831 17.71653-10.97543 0-30.976151 28.1161-31.950459 28.1161-6.7411 0 4.35009 7.31698 6.45599 7.31698 10.80608 0 15.15593 3.93187 18.29241-10.70446 18.29241h-7.01208c-3.6058 0 10.57693-26.19603-9.24784-11.38196-7.31055 5.46281-17.21588 6.31009-26.18523 7.99447-7.61008 1.42913-17.71654 3.62482-17.71654-7.99447 0-10.53144-17.71653-41.2346-17.71653-26.55785 0 6.08893 24.63689 15.6021 25.71098 26.55785.3162 3.22524 6.48139 0 9.72209 0z"/>
    <path fill="#999" fill-rule="evenodd" d="m106.36696 194.44151 8.12995-17.27618-.67749 17.71654 10.19633-10.60281 17.71653-7.11373-9.62046 17.71654 9.62046-6.53783 8.67195 6.53783h9.04459l-11.07708 17.71654-6.63946 8.26546-8.94296-8.26546-8.77357 8.26546v9.45107h-17.71654l17.71654-17.71653h-17.71654l-6.707219-17.71654 6.774969-.44036z"/>
    <path fill="none" stroke="red" stroke-width="2.5" d="m63.007178 31.842337-9.857572 21.307249 17.716536 8.502599v26.930472L53.149606 113.14192v17.61491l35.433071 19.6474-17.716535 16.93741v9.82369l17.716535 17.71654 17.716533-17.71654 17.71654 17.71654 17.71653 42.24192-17.71653 46.34076h8.09607l1.355 24.11888"/>
    <path fill="none" stroke="red" stroke-width="2.5" d="m35.22982 302.84095 17.919786-19.3764 17.716536 17.71653 35.433068-17.71653v-17.71654l53.14961 17.71654h35.43307v-17.71654l-17.71654-17.71653 17.71654-35.43307 17.71654-17.71654 17.71653 17.71654v17.71653h17.71654l17.71653-17.71653h35.43307l11.1448-10.70444"/>
    <path fill="none" stroke="#243eb4" stroke-width="1pt" d="M27.303113 194.88187c11.514541.47152 16.036815 24.53974 25.846493 28.69199 10.662661 4.51329 12.89996 6.74108 28.149978 6.74108 12.399615 0 1.242297-10.80606 16.937414-10.80606 7.615902 0 25.778752-12.90602 25.778752-24.62701 0-3.22494 26.55617 3.45648 28.42097 7.68959 3.1501 7.15075 17.61491 5.05744 17.61491 16.93742 0 14.99684-10.60281 7.71666-10.60281 17.61491 0 12.9999-6.08732 10.90769-17.71654 10.90769-4.84277 0-4.30831 10.04525-8.94296 11.44969-16.17073 4.90022 10.12156 7.43943 15.58242 12.87244 2.82306 2.80866 16.33306 3.80297 19.6474 4.06498 9.30199.73533 10.84732-2.36174 19.6474-4.06498 19.13598-3.70374 15.58242-14.44977 15.58242-31.16484v-28.59036c0-2.52724 16.26024 17.71653 16.93741 17.71653 7.22758 0 18.14182-9.26999 18.96991-17.71653.43551-4.44225 8.87522-5.5634 8.87522-10.02695v-1.35499c0-16.09317-6.50915-41.76767 11.44967-41.76767 7.71746 0 7.18747-17.71654 14.90493-17.71654 5.94424 0 .63652-12.40518-2.03249-17.71653-4.26866-8.49464-15.51394-17.71654 3.38748-17.71654 10.90387 0 10.56994-17.716533.6775-17.716533H254.7387c-63.65916 0-31.52037-17.716535-49.45725-17.716535-3.60706 0-10.39956-11.417929-10.39956-17.716536 0-7.270273 35.43307 12.510967 35.43307-17.716535"/>
    <g fill="none" stroke="#826d35" stroke-width=".375">
      <path d="M17.716535 159.4488c-2.179709-8.96404 18.450489 0 27.675733 0 16.055156 0-.744559 17.71653 15.58242 17.71653h27.607989c1.605012 0-4.794742-17.71653 8.299328-17.71653 7.785065 0 6.325225-35.43307 16.259915-35.43307 3.55859 0 3.75283-21.6988 4.06498-25.101236 1.65221-18.009074 24.52538-25.224593 24.52538-52.84473V24.49148"/>
      <path d="M25.067372 141.73226c0-11.9691 23.938211 0 35.907316 0 24.506532 0 12.142116-6.2167 27.607989-10.97543 13.435033-4.13385-15.933839-24.45764 7.621831-24.45764 3.019274 0-4.077039-17.716533 10.094702-17.716533 14.3968 0 0-28.793593 0-43.190389v-9.959217"/>
      <path d="M177.16535 17.716515v26.998256c0 18.554655-17.71653-1.23663-17.71653 15.582421 0 10.810024-.37523 17.11971-8.36709 21.002392-6.39627 3.107494-11.33526 20.047716-16.93742 24.999606-11.35798 10.03961-16.93741-2.26797-16.93741 17.71654 0 4.25743 6.80885 6.54865 6.80885 10.80608 0 23.62236-17.71654 15.64959-17.71654 33.87483 0 10.95103-17.716533 6.81419-17.716533 26.18523 0 6.43778-11.394591 6.47384-17.716535 7.68959-1.151692.22148-3.96652 10.02695-17.716536 10.02695-.353925 0 2.887564-17.71654-9.789828-17.71654-6.048539 0-15.496707-10.15282-16.937413-17.71654-.008735-.04585-1.890003 0-2.03249 0m11.043196 70.86615c-1.600682-8.4036 14.078536 17.71653 24.864121 17.71653 13.817978 0 19.203367 2.60352 28.285485-6.94433 2.976494-3.12913 8.810138-7.66194 11.009314-10.7722 7.102729-10.0453 6.707219 27.6757 6.707219 27.70961 0 5.6269 11.97278 15.22286 17.71654 16.93741 8.82025 2.63291 20.12878-.83017 28.42097-1.35499 2.3327-.14764 4.67473 0 7.0121 0 3.28586 0 0 6.57171 0 9.85757m8.23158 0h15.92116c9.79425 0 18.26209-7.55319 28.99687-10.53507 2.30649-.64069 0-4.78764 0-7.18146 0-6.63571 17.71653-2.44274 17.71653-9.07845 0-33.27417 13.19356-18.52847 35.43307-35.26371 9.05027-6.81033 15.20896 7.58632 17.71654-17.6149.21355-2.1461 15.55983 8.80745 17.71653 8.80745 14.2745 0-4.26498-28.33992-8.5026-41.9709-1.34421-4.3239 7.56593-10.16499 8.5026-11.17871M212.59843 312.3259c-1.60661-5.16791 55.63952-46.57789 63.82016-46.57789h33.19733"/>
    </g>
    <g fill="none" stroke="#000">
      <path stroke-dasharray="10 1.25" stroke-width="1.25" d="m35.907316 88.752046 70.391894 17.547144 70.86614-17.716533 70.86615 17.716533 70.86614-17.716533" opacity=".32926827"/>
      <path stroke-dasharray="10 1.25" stroke-width="1.25" d="m87.397053 36.584813 18.902157 69.714377-17.716533 70.86614 17.716533 70.86615-17.716533 70.86614M158.10695 18.868282l18.90215 69.714377-17.71653 70.866141 17.71653 70.86615-17.71653 70.86614m69.83678-264.596274 18.90215 69.714374-17.71653 70.86614 17.71653 70.86615-17.71653 70.86614" opacity=".32926827"/>
      <path stroke-dasharray="10 1.25" stroke-width="1.25" d="m17.716535 159.77444 70.391894 17.54714 70.866141-17.71653 70.86615 17.71653 70.86614-17.71653M35.433071 230.31494l70.391889 17.54714 70.86615-17.71653 70.86615 17.71653 70.86614-17.71653" opacity=".32926827"/>
      <path stroke-width="6.25" d="m17.61491 18.292406 70.967767 17.140645 70.866143-17.716536 70.86614 17.716536 70.86614-17.716536 17.71654 70.866142L301.1811 159.4488l17.71654 70.86614-17.71654 70.86614-70.86614 17.71654-70.86614-17.71654-70.866143 17.71654-70.866142-17.71654 17.716536-70.86614-17.716536-70.86614 17.716536-70.866143L17.61491 18.292406z"/>
    </g>
  </g>
  <g display="block">
    <path fill="none" d="M335.98918 119.237691a100.89618 100.89618 0 1 1-201.79236 0 100.89618 100.89618 0 1 1 201.79236 0z" opacity=".32926827"/>
    <path fill="none" d="M183.76682 59.468407h32.232422v37.876175H183.76682z"/>
    <path fill="none" d="M183.76675 59.468407h32.232422v28.276169H183.76675z"/>
    <path fill="none" d="M379.39807 159.44879h74.52462v53.149605h-74.52462z" opacity=".35975611"/>
    <g display="block" transform="translate(.02986367 .07167601)">
      <path fill="none" d="M335.98918 119.237691c0 55.72342-45.17276 100.89618-100.89618 100.89618-55.72342 0-100.89618-45.17276-100.89618-100.89618 0-55.723423 45.17276-100.896183 100.89618-100.896183 55.72342 0 100.89618 45.17276 100.89618 100.896183z" opacity=".32926827"/>
      <path fill="none" d="M183.76682 59.468407h32.232422v37.876175H183.76682z"/>
      <path fill="none" d="M183.76675 59.468407h32.232422v28.276169H183.76675z"/>
      <path fill="none" d="M379.39807 159.44879h74.52462v53.149605h-74.52462z" opacity=".35975611"/>
      <path fill="#23282b" fill-rule="evenodd" stroke="#23282b" stroke-linejoin="round" stroke-width=".28346458" d="M265.26949 26.068453v.956693c0 3.330709.3189 5.669292.92126 7.051182.63779 1.346456 1.66535 2.019685 3.11811 2.019685 1.45275 0 2.51575-.673229 3.11811-2.019685.49606-1.062993.77953-2.76378.88582-5.031497 2.16142.885827 4.25197 1.877953 6.34252 2.940945-.46063 2.055118-1.24015 3.826772-2.33858 5.208662-1.87795 2.338582-4.53543 3.543307-8.00787 3.543307-3.47244 0-6.16536-1.204725-8.04331-3.543307-1.87795-2.374016-2.79921-5.775591-2.79921-10.133859 0-.992126.03543-1.948819.14173-2.834645 2.23228.531496 4.46457 1.169291 6.66142 1.842519zm45.81496 87.236207h6.02362V96.225939l-6.16535 1.27559v-4.6063l6.12992-1.27559h6.44882v21.685021h6.02362v4.67717h-18.46063v-4.67717zm-25.12205 0h5.98819V96.225939l-6.16535 1.27559v-4.6063l6.12992-1.27559h6.48425v21.685021h6.02362v4.67717H285.9624v-4.67717zm-12.7559-8.53937c0-3.29527-.3189-5.598411-.9567-6.980301-.60236-1.34646-1.62992-2.01968-3.08267-2.01968-1.45276 0-2.48032.67322-3.11811 2.01968-.60237 1.38189-.9567 3.685031-.9567 6.980301 0 3.36615.35433 5.70473.9567 7.05119.63779 1.34645 1.66535 2.05511 3.11811 2.05511 1.45275 0 2.48031-.70866 3.08267-2.05511.6378-1.34646.9567-3.68504.9567-7.05119zm6.76771.03544c0 4.3937-.92126 7.75984-2.79921 10.16929-1.87795 2.33858-4.57087 3.50787-8.00787 3.50787-3.47245 0-6.16536-1.16929-8.04331-3.50787-1.87795-2.40945-2.79921-5.77559-2.79921-10.16929 0-4.35827.92126-7.724401 2.79921-10.098421 1.87795-2.37401 4.57086-3.5433 8.04331-3.5433 3.437 0 6.12992 1.16929 8.00787 3.5433 1.87795 2.37402 2.79921 5.740151 2.79921 10.098421zm43.51181-25.334639c0-1.062992-.03543-2.055118-.07086-2.905512 1.84252 3.862205 3.47244 7.866142 4.81889 11.97638-.24803.38976-.49606.74409-.74409 1.06299-1.06299 1.34646-2.40945 2.33858-3.9685 2.90551v-.88582h-6.44882l-2.55118.53149c-1.20473-.60236-2.23229-1.45275-3.08268-2.55118-1.91339-2.338582-2.83465-5.704724-2.83465-10.098425 0-4.3937.92126-7.759842 2.83465-10.098425 1.48819-1.913386 3.47244-3.047244 6.02362-3.437008.95669 1.488189 1.87795 3.011811 2.76378 4.570866-.24803-.035433-.49606-.070866-.74409-.070866-1.48819 0-2.55118.673229-3.15355 2.019685-.63779 1.346457-.92126 3.68504-.92126 6.980315 0 3.295276.28347 5.669292.92126 7.051181.60237 1.346457 1.66536 2.019687 3.15355 2.019687 1.41732 0 2.48031-.67323 3.08267-2.019687.6378-1.381889.92126-3.755905.92126-7.051181zm-37.52362 8.503938h5.98819V70.926721l-6.16535 1.275591v-4.641733l6.12992-1.27559h6.48425v21.68504h6.02362v4.7126h-6.02362v-1.06299h-6.48425l-5.10237 1.06299h-.85039v-4.7126zm-12.7559-8.503938c0-3.295275-.3189-5.633858-.9567-6.980315-.60236-1.346456-1.62992-2.019685-3.08267-2.019685-1.45276 0-2.48032.673229-3.11811 2.019685-.60237 1.346457-.9567 3.68504-.9567 6.980315 0 3.295276.35433 5.669292.9567 7.051181.63779 1.346457 1.66535 2.019687 3.11811 2.019687 1.45275 0 2.48031-.67323 3.08267-2.019687.6378-1.381889.9567-3.755905.9567-7.051181zm6.76771.035433c0 4.393701-.92126 7.759843-2.79921 10.098425-.88583 1.13386-1.91339 1.98425-3.15354 2.55118-1.38189-.67323-3.01181-.99212-4.85433-.99212-1.87796 0-3.50788.31889-4.88977.99212-1.24016-.56693-2.26771-1.41732-3.15354-2.55118-1.87795-2.338582-2.79921-5.704724-2.79921-10.098425 0-4.3937.92126-7.759842 2.79921-10.098425 1.87795-2.409449 4.57086-3.57874 8.04331-3.57874 3.437 0 6.12992 1.169291 8.00787 3.57874 1.87795 2.338583 2.79921 5.704725 2.79921 10.098425zm31.11024-16.830708h4.11023c.77953 1.098425 1.52363 2.19685 2.26772 3.295275-1.45275.212599-2.72835.708662-3.82677 1.38189h-2.55118v-4.677165zm-12.72047-8.503937c0-3.330709-.3189-5.633859-.92126-6.980315-.60237-1.346457-1.70079-2.019685-3.15355-2.019685-1.45275 0-2.48031.673228-3.11811 2.019685-.60236 1.346456-.92126 3.649606-.92126 6.980315 0 3.295275.3189 5.633858.92126 7.051181.6378 1.346456 1.66536 2.019685 3.11811 2.019685 1.45276 0 2.51575-.673229 3.15355-2.019685.60236-1.417323.92126-3.755906.92126-7.051181zm-4.8189-13.641733c4.00394 3.011811 7.79527 6.271654 11.33858 9.850394.17717 1.169291.28347 2.444882.28347 3.826772 0 4.358267-.9567 7.724409-2.83465 10.098425-1.06299 1.346457-2.37402 2.30315-3.93307 2.905512v-.92126h-6.48425l-2.51575.531496c-1.20473-.566929-2.23228-1.417323-3.11811-2.515748-1.87795-2.374016-2.83465-5.740158-2.83465-10.098425 0-4.393701.9567-7.759843 2.83465-10.133858 1.77165-2.196851 4.1811-3.366142 7.26378-3.543308zM273.2065 54.166879c0-3.330709-.3189-5.633859-.9567-6.980315-.60236-1.346457-1.62992-2.019685-3.08267-2.019685-1.45276 0-2.48032.673228-3.11811 2.019685-.60237 1.346456-.9567 3.649606-.9567 6.980315 0 3.295275.35433 5.633858.9567 7.051181.63779 1.346456 1.66535 2.019685 3.11811 2.019685 1.45275 0 2.48031-.673229 3.08267-2.019685.6378-1.417323.9567-3.755906.9567-7.051181zm6.76771.035433c0 4.358267-.92126 7.724409-2.79921 10.098425-.88583 1.098425-1.91339 1.948819-3.15354 2.551181-1.38189-.673228-3.01181-1.027559-4.85433-1.027559-1.87796 0-3.50788.354331-4.88977 1.027559-1.24016-.602362-2.26771-1.452756-3.15354-2.551181-1.87795-2.374016-2.79921-5.740158-2.79921-10.098425 0-4.393701.92126-7.759843 2.79921-10.133858 1.59449-1.984252 3.72047-3.153544 6.44882-3.472441.56693.070866 1.13386.141732 1.73622.141732.56693 0 1.09842-.035433 1.59449-.106299 2.62204.35433 4.71259 1.488189 6.27165 3.437008 1.87795 2.374015 2.79921 5.740157 2.79921 10.133858zm35.50394 120.259838-4.42913.95669v-4.64173l6.09448-1.27559h1.59449c-1.02756 1.70079-2.12598 3.36614-3.25984 4.96063zm-29.44488 16.72441h5.98819v-17.07874l-6.16536 1.31102v-4.64173l6.12992-1.27559h6.48426v21.68504h2.23228c-1.84252 1.62992-3.72047 3.18898-5.66929 4.67716h-9v-4.67716zm-12.75591-8.50394c0-3.33071-.28346-5.63386-.95669-6.98031-.60236-1.38189-1.62992-2.05512-3.08268-2.05512-1.45275 0-2.48031.67323-3.11811 2.05512-.60236 1.34645-.95669 3.6496-.95669 6.98031 0 3.33071.35433 5.66929.95669 7.01575.6378 1.38189 1.66536 2.05512 3.11811 2.05512 1.45276 0 2.48032-.67323 3.08268-2.05512.67323-1.34646.95669-3.68504.95669-7.01575zm6.76772.03543c0 4.35827-.92126 7.75985-2.79921 10.13386-1.87796 2.33859-4.57087 3.50788-8.00788 3.50788-3.47244 0-6.16535-1.16929-8.04331-3.50788-1.87795-2.37401-2.79921-5.77559-2.79921-10.13386 0-4.3937.92126-7.7244 2.79921-10.13385 1.87796-2.37402 4.57087-3.54331 8.04331-3.54331 3.43701 0 6.12992 1.16929 8.00788 3.54331 1.87795 2.40945 2.79921 5.74015 2.79921 10.13385zm43.51181-25.37007c0-3.29528-.28347-5.63386-.92126-6.98032-.60236-1.34646-1.62992-2.01968-3.08268-2.01968-1.48819 0-2.55118.67322-3.15354 2.01968-.6378 1.34646-.92126 3.68504-.92126 6.98032 0 3.3307.28346 5.66929.92126 7.05118.60236 1.34645 1.66535 2.01968 3.15354 2.01968.38977 0 .7441-.03543 1.09843-.14173-.6378 1.09843-1.24016 2.16142-1.91339 3.22441h-1.59449l-2.55118.5315c-1.20472-.60237-2.23228-1.41733-3.08267-2.51575-1.91339-2.37402-2.83465-5.74016-2.83465-10.13386 0-4.35827.92126-7.75984 2.83465-10.09843 1.87795-2.37401 4.53543-3.57874 8.0433-3.57874 3.43701 0 6.09449 1.20473 8.00788 3.57874.28346.38977.56693.77953.81496 1.20473-1.38189 4.2874-3.01181 8.4685-4.96063 12.47244.1063-1.02756.14173-2.23228.14173-3.61417zm-5.10236 12.61417c-.2126.35433-.38977.67323-.60237.99213.2126-.3189.38977-.6378.60237-.99213zm-32.42126-4.11024h5.98819v-17.0433l-6.16536 1.27559v-4.6063l6.12992-1.27559h6.48426v21.6496h6.02362v4.7126h-6.02362v-1.06299h-6.48426l-5.10236 1.06299h-.85039v-4.7126zm-12.75591-8.50393c0-3.29528-.28346-5.63386-.95669-6.98032-.60236-1.34646-1.62992-2.01968-3.08268-2.01968-1.45275 0-2.48031.67322-3.11811 2.01968-.60236 1.34646-.95669 3.68504-.95669 6.98032 0 3.3307.35433 5.66929.95669 7.05118.6378 1.34645 1.66536 2.01968 3.11811 2.01968 1.45276 0 2.48032-.67323 3.08268-2.01968.67323-1.38189.95669-3.72048.95669-7.05118zm6.76772.03543c0 4.3937-.92126 7.75984-2.79921 10.13386-.88583 1.09842-1.91339 1.94882-3.15355 2.51575-1.38189-.67323-3.01181-.99213-4.85433-.99213-1.87795 0-3.50787.3189-4.88976.99213-1.24016-.56693-2.26772-1.41733-3.15355-2.51575-1.87795-2.37402-2.79921-5.74016-2.79921-10.13386 0-4.35827.92126-7.75984 2.79921-10.09843 1.87796-2.37401 4.57087-3.57874 8.04331-3.57874 3.43701 0 6.12992 1.20473 8.00788 3.57874 1.87795 2.33859 2.79921 5.74016 2.79921 10.09843zm31.14567-16.83071h5.98819v-17.04331l-6.12992 1.27559v-4.64173l6.09448-1.27559h6.44882v21.68504h6.02362v3.79134c-.07086.3189-.17716.60236-.24803.92126h-4.03937c-1.59449-1.02756-3.50787-1.55906-5.77559-1.55906-2.30315 0-4.25197.5315-5.84645 1.55906h-2.51575v-4.7126zm-12.75591-8.50394c0-3.33071-.3189-5.63385-.92126-6.98031-.60236-1.34646-1.66535-2.01969-3.15354-2.01969-1.45276 0-2.48032.67323-3.11811 2.01969-.60236 1.34646-.92126 3.6496-.92126 6.98031 0 3.29528.3189 5.66929.92126 7.05118.63779 1.34646 1.66535 2.01969 3.11811 2.01969 1.48819 0 2.51575-.67323 3.15354-2.01969.60236-1.38189.92126-3.7559.92126-7.05118zm6.80315.03544c0 4.35826-.95669 7.72441-2.83464 10.09842-1.063 1.34646-2.37402 2.30315-3.93307 2.90551v-.88582h-6.48426l-2.51574.49606c-1.20473-.56693-2.23229-1.41732-3.11812-2.51575-1.87795-2.37401-2.83464-5.74016-2.83464-10.09842 0-4.3937.95669-7.75985 2.83464-10.09843 1.91339-2.40945 4.57087-3.57874 8.00788-3.57874 3.50787 0 6.16535 1.16929 8.04331 3.57874 1.87795 2.33858 2.83464 5.70473 2.83464 10.09843zm-31.96063-.03544c0-3.33071-.28346-5.63385-.95669-6.98031-.60236-1.34646-1.62992-2.01969-3.08268-2.01969-1.45275 0-2.48031.67323-3.11811 2.01969-.60236 1.34646-.95669 3.6496-.95669 6.98031 0 3.29528.35433 5.66929.95669 7.05118.6378 1.34646 1.66536 2.01969 3.11811 2.01969 1.45276 0 2.48032-.67323 3.08268-2.01969.67323-1.38189.95669-3.7559.95669-7.05118zm6.76772.03544c0 4.35826-.92126 7.72441-2.79921 10.09842-.88583 1.13386-1.91339 1.94882-3.15355 2.55118-1.38189-.67323-3.01181-1.02756-4.85433-1.02756-1.87795 0-3.50787.35433-4.88976 1.02756-1.24016-.60236-2.26772-1.41732-3.15355-2.55118-1.87795-2.37401-2.79921-5.74016-2.79921-10.09842 0-4.3937.92126-7.75985 2.79921-10.09843 1.70079-2.16142 4.00394-3.33071 6.98032-3.54331.3189.03543.63779.03543.99213.03543.35433 0 .70866 0 1.06299-.03543 2.97638.2126 5.31496 1.38189 7.01575 3.54331 1.87795 2.33858 2.79921 5.70473 2.79921 10.09843zm-15.16536 78.02362c0-3.29528.3189-5.63386.9567-6.98032.63779-1.34645 1.66535-2.01968 3.11811-2.01968 1.45275 0 2.48031.67323 3.11811 2.01968.53149 1.13386.81496 2.97638.92126 5.52756 2.16141-.92126 4.32283-1.91338 6.41338-2.97638-.42519-2.26771-1.24015-4.14566-2.40945-5.63385-1.87795-2.40945-4.60629-3.57874-8.0433-3.57874-3.47244 0-6.12992 1.16929-8.00788 3.57874-1.87795 2.33858-2.83464 5.74015-2.83464 10.09842 0 1.16929.03543 2.23229.17716 3.25984 2.23229-.53149 4.46457-1.13385 6.62599-1.80708 0-.49607-.03544-.9567-.03544-1.48819zm28.73622-13.1811h-3.57874v2.55118c1.20473-.81496 2.40945-1.66536 3.57874-2.55118zm-41.98818 12.9685c0-3.29528-.3189-5.63386-.92126-6.98031-.6378-1.34646-1.66536-2.01969-3.15355-2.01969-1.45275 0-2.48031.67323-3.11811 2.01969-.60236 1.34645-.92126 3.68503-.92126 6.98031 0 2.44488.17717 4.3937.49607 5.77559-2.12599.17717-4.32284.28347-6.51969.3189-.49607-1.73622-.77953-3.75591-.77953-6.05906 0-4.35826.95669-7.75984 2.79921-10.09842 1.91339-2.40945 4.6063-3.57874 8.04331-3.57874 3.47244 0 6.12992 1.16929 8.04331 3.57874 1.41732 1.80708 2.33858 4.21653 2.69291 7.22834-.14173.9567-.17716 1.98426-.17716 3.08268 0 1.02756.03543 1.98425.14173 2.87008-.03543.14173-.03543.28346-.07087.4252-2.26771.53149-4.57086.99212-6.90945 1.34645.24804-1.27559.35434-2.90551.35434-4.88976zm-31.53544 4.85433v-13.3937l-6.16536 1.27559v-4.6063l6.12992-1.31102h6.44882v18.88582c-2.16141-.21259-4.2874-.49606-6.41338-.85039zm-18.77953-4.99606c0-3.22441-.3189-5.49213-.92126-6.83858-.60236-1.34646-1.66535-2.01969-3.11811-2.01969s-2.48031.67323-3.15354 2.01969c-.35433.81496-.60237 1.94881-.7441 3.40157-2.01968-.99213-4.00393-2.01969-5.95275-3.15354.46063-1.27559 1.06299-2.37402 1.84252-3.33071 1.87795-2.40945 4.53543-3.57874 8.00787-3.57874 3.47244 0 6.16535 1.16929 8.04331 3.57874 1.84252 2.33858 2.79921 5.74016 2.79921 10.09842 0 .70866 0 1.41733-.07087 2.09055-2.26771-.67322-4.5-1.45275-6.73228-2.26771zm38.05512-18.67323h5.95276v-17.07874l-6.12993 1.31102v-4.64173l6.0945-1.27559h6.48425v21.68504h5.98819v4.67716h-18.38977v-4.67716zm-25.19291 0h6.02362v-17.07874l-6.16536 1.31102v-4.64173l6.12992-1.27559h6.44882v21.68504h6.02363v4.67716H214.175v-4.67716zm-25.12205 0h5.98819v-17.07874l-6.16536 1.31102v-4.64173l6.12992-1.27559h6.48426v21.68504h5.98818v4.67716h-18.42519v-4.67716zm-12.79134-8.53937c0-3.29528-.28347-5.59843-.92126-6.94488-.60236-1.38189-1.62992-2.05512-3.08268-2.05512-1.45275 0-2.48031.67323-3.15354 2.05512-.60236 1.34645-.92126 3.6496-.92126 6.94488 0 3.33071.3189 5.66929.92126 7.01575-2.72835-2.55118-5.27953-5.2441-7.68898-8.11418.14173-3.82677 1.06299-6.80315 2.79922-8.96456 1.87795-2.37402 4.53543-3.54331 8.0433-3.54331 3.43701 0 6.12992 1.16929 8.00788 3.54331 1.87795 2.37401 2.79921 5.74015 2.79921 10.13386 0 4.35826-.92126 7.75984-2.79921 10.13385-1.09843 1.34646-2.44489 2.33859-4.07481 2.90552-1.70078-1.34646-3.36614-2.72835-4.96063-4.14567.3189.07086.6378.14173 1.02756.14173 1.45276 0 2.48032-.67323 3.08268-2.05512.63779-1.34646.92126-3.68504.92126-7.05118zm75.47244-25.29921c0-3.29528-.31889-5.63386-.92126-6.98032-.63779-1.34645-1.66535-2.01968-3.11811-2.01968-1.45275 0-2.51574.67323-3.15354 2.01968-.60236 1.34646-.92126 3.68504-.92126 6.98032 0 3.33071.3189 5.66929.92126 7.05118.6378 1.34645 1.70079 2.01968 3.15354 2.01968 1.45276 0 2.48032-.67323 3.08268-2.01968.6378-1.38189.95669-3.72047.95669-7.05118zm6.73229 2.23228c-.28347 3.33071-1.20473 5.98819-2.76378 7.93701-1.06299 1.31102-2.37402 2.26771-3.93307 2.87008v-.88583h-6.48425l-2.51575.5315c-1.20473-.60237-2.26772-1.45276-3.11812-2.51575-1.87795-2.37402-2.83464-5.74016-2.83464-10.13386 0-4.35827.95669-7.75984 2.83464-10.09843 1.87796-2.37401 4.57087-3.57874 8.04331-3.57874 3.43701 0 6.12993 1.20473 8.00788 3.57874 1.55905 1.94882 2.51575 4.64174 2.76378 8.00788-.07087.70866-.07087 1.45275-.07087 2.19685 0 .74409 0 1.41732.07087 2.09055zm-31.88977-2.23228c0-3.29528-.28346-5.63386-.92126-6.98032-.60236-1.34645-1.62992-2.01968-3.11811-2.01968-1.45276 0-2.51575.67323-3.11811 2.01968-.6378 1.34646-.92126 3.68504-.92126 6.98032 0 3.33071.28346 5.66929.92126 7.05118.60236 1.34645 1.66535 2.01968 3.11811 2.01968s2.51575-.67323 3.11811-2.01968c.6378-1.38189.92126-3.72047.92126-7.05118zm6.80315.03543c0 4.3937-.92126 7.75984-2.79921 10.13386-1.09843 1.34645-2.40945 2.30315-3.96851 2.87008v-.88583h-6.44882l-2.55118.5315c-1.20472-.60237-2.23228-1.41733-3.11811-2.51575-1.87795-2.37402-2.79921-5.74016-2.79921-10.13386 0-4.35827.92126-7.75984 2.79921-10.09843 1.91339-2.37401 4.57087-3.57874 8.04331-3.57874 3.47244 0 6.12992 1.20473 8.04331 3.57874 1.87795 2.33859 2.79921 5.74016 2.79921 10.09843zm-44.32677 8.4685h5.98819v-17.0433l-6.16536 1.27559v-4.6063l6.12992-1.31103h6.48426v21.68504h5.98818v4.7126h-5.98818v-1.06299h-6.48426l-5.10236 1.06299h-.85039v-4.7126zm-12.79134-8.50393c0-3.29528-.28347-5.63386-.92126-6.98032-.60236-1.34645-1.62992-2.01968-3.08268-2.01968-1.45275 0-2.48031.67323-3.15354 2.01968-.60236 1.34646-.92126 3.68504-.92126 6.98032 0 3.33071.3189 5.66929.92126 7.05118.67323 1.34645 1.70079 2.01968 3.15354 2.01968 1.45276 0 2.48032-.67323 3.08268-2.01968.63779-1.38189.92126-3.72047.92126-7.05118zm6.80315.03543c0 4.3937-.92126 7.75984-2.79921 10.13386-.88583 1.09842-1.91339 1.94882-3.15355 2.51575-1.38189-.67323-3.01181-.99213-4.85433-.99213-1.87795 0-3.50787.3189-4.88976.99213-1.24016-.56693-2.26772-1.41733-3.15354-2.51575-1.87796-2.37402-2.83465-5.74016-2.83465-10.13386 0-4.35827.95669-7.75984 2.83465-10.09843 1.87795-2.37401 4.53543-3.57874 8.0433-3.57874 3.43701 0 6.12992 1.20473 8.00788 3.57874 1.87795 2.33859 2.79921 5.74016 2.79921 10.09843zm68.66929-25.33465c0-3.3307-.31889-5.63385-.92126-6.98031-.63779-1.34646-1.66535-2.01969-3.11811-2.01969-1.45275 0-2.51574.67323-3.15354 2.01969-.60236 1.34646-.92126 3.64961-.92126 6.98031 0 3.29528.3189 5.6693.92126 7.05119.6378 1.34645 1.70079 2.01968 3.15354 2.01968 1.45276 0 2.48032-.67323 3.08268-2.01968.6378-1.38189.95669-3.75591.95669-7.05119zm6.73229 2.23229c-.28347 3.29527-1.20473 5.95275-2.76378 7.90157-.88583 1.09843-1.91339 1.94882-3.15354 2.55118-1.38189-.67322-3.01182-1.02756-4.85434-1.02756-1.84252 0-3.47244.35434-4.88976 1.02756-1.24016-.60236-2.30315-1.45275-3.15355-2.55118-1.87795-2.37401-2.83464-5.74015-2.83464-10.09842 0-4.3937.95669-7.75985 2.83464-10.09843 1.87796-2.40945 4.57087-3.57874 8.04331-3.57874 3.43701 0 6.12993 1.16929 8.00788 3.57874 1.55905 1.94882 2.51575 4.64173 2.76378 8.00788-.07087.70866-.07087 1.41732-.07087 2.19685 0 .70866 0 1.41732.07087 2.09055zM214.175 140.4464h6.02362v-17.04331l-6.16536 1.27559v-4.64173l6.12992-1.27559h6.44882v21.68504h6.02363v4.7126h-4.28741c-1.59448-1.02756-3.5433-1.55906-5.81102-1.55906s-4.21654.5315-5.81102 1.55906H214.175v-4.7126zm-12.72048-8.50394c0-3.3307-.31889-5.63385-.92126-6.98031-.63779-1.34646-1.70078-2.01969-3.15354-2.01969s-2.48032.67323-3.11811 2.01969c-.60236 1.34646-.92126 3.64961-.92126 6.98031 0 3.29528.3189 5.6693.92126 7.05119.63779 1.34645 1.66535 2.01968 3.11811 2.01968s2.48031-.67323 3.15354-2.01968c.60237-1.38189.92126-3.75591.92126-7.05119zm6.80315.03544c0 4.35827-.99212 7.72441-2.83464 10.09842-1.063 1.34646-2.37402 2.30315-3.93307 2.90551v-.92126h-6.48426l-2.55118.5315c-1.16929-.56693-2.19685-1.41732-3.08267-2.51575-1.87796-2.37401-2.83465-5.74015-2.83465-10.09842 0-4.3937.95669-7.75985 2.83465-10.09843 1.87795-2.40945 4.57086-3.57874 8.00787-3.57874 3.50787 0 6.16535 1.16929 8.04331 3.57874 1.84252 2.33858 2.83464 5.70473 2.83464 10.09843zm-31.99606-.03544c0-3.3307-.28347-5.63385-.92126-6.98031-.60236-1.34646-1.62992-2.01969-3.08268-2.01969-1.45275 0-2.48031.67323-3.15354 2.01969-.60236 1.34646-.92126 3.64961-.92126 6.98031 0 3.29528.3189 5.6693.92126 7.05119.67323 1.34645 1.70079 2.01968 3.15354 2.01968 1.45276 0 2.48032-.67323 3.08268-2.01968.63779-1.38189.92126-3.75591.92126-7.05119zm6.80315.03544c0 4.35827-.92126 7.72441-2.79921 10.09842-.88583 1.09843-1.91339 1.94882-3.15355 2.55118-1.38189-.67322-3.01181-1.02756-4.85433-1.02756-1.87795 0-3.50787.35434-4.88976 1.02756-1.24016-.60236-2.26772-1.45275-3.15354-2.55118-1.87796-2.37401-2.83465-5.74015-2.83465-10.09842 0-4.3937.95669-7.75985 2.83465-10.09843 1.87795-2.40945 4.53543-3.57874 8.0433-3.57874 3.43701 0 6.12992 1.16929 8.00788 3.57874 1.87795 2.33858 2.79921 5.70473 2.79921 10.09843zm56.33858-96.307084h5.9882V21.99365c2.16141.212599 4.32283.496063 6.44881.850394v12.826772h5.98819v4.712598h-18.4252v-4.712598zm-25.15748 0h6.02362V22.773178c2.09055-.354331 4.25197-.637796 6.37796-.814961v13.712599h6.02362v4.712598h-18.4252v-4.712598zm-25.12205 0h5.95276v-5.244095c2.12598-.956693 4.25197-1.877953 6.44882-2.692913v7.937008h6.02362v4.712598h-18.4252v-4.712598zM161.66318 181.72593c-3.3307-3.89764-6.34252-8.07874-9.03543-12.47244 2.62205.35433 4.7126 1.48819 6.23622 3.43701 1.45276 1.84252 2.33858 4.21653 2.65748 7.15748-.03543.53149-.07086 1.06299-.1063 1.59448l.24803.28347zm-14.84645-24.27165c0-3.29528.28346-5.63386.92126-6.98032.60236-1.34646 1.62992-2.01968 3.08267-2.01968 1.45276 0 2.51575.67322 3.15355 2.01968.60236 1.34646.92126 3.68504.92126 6.98032 0 3.3307-.3189 5.66929-.92126 7.05118-.6378 1.27559-1.59449 1.94882-2.94095 2.01968.5315.92126 1.06299 1.84252 1.59449 2.72835 1.13386.14173 2.16142.46063 3.11811.88582 1.20473-.56692 2.26772-1.41732 3.11811-2.51574 1.48819-1.84252 2.37402-4.32284 2.69291-7.40552-.10629-.92126-.17716-1.87795-.17716-2.94094 0-.95669.07087-1.87795.14173-2.72835-.3189-2.97637-1.20472-5.38582-2.65748-7.15748-1.87795-2.37401-4.53543-3.57874-8.04331-3.57874-3.437 0-6.12992 1.20473-8.00787 3.57874 1.13386 3.68504 2.44488 7.26378 4.00394 10.70079v-.63779zm0-25.29922c0-3.33071.28346-5.63386.92126-6.98031.60236-1.34646 1.62992-2.01969 3.08267-2.01969 1.45276 0 2.51575.67323 3.15355 2.01969.60236 1.34645.92126 3.6496.92126 6.98031 0 3.29528-.3189 5.66929-.92126 7.05118-.6378 1.34646-1.70079 2.01969-3.15355 2.01969-1.45275 0-2.48031-.67323-3.08267-2.01969-.6378-1.38189-.92126-3.7559-.92126-7.05118zm-6.80315.03544c0 4.35826.92126 7.72441 2.79921 10.09842.88583 1.09843 1.91339 1.94882 3.15354 2.55118 1.38189-.67323 3.01181-1.02756 4.85433-1.02756 1.87796 0 3.50788.35433 4.9252 1.02756 1.20473-.60236 2.26772-1.45275 3.11811-2.55118 1.48819-1.84252 2.37402-4.2874 2.69291-7.37008-.10629-.92126-.17716-1.91338-.17716-2.94094 0-.9567.07087-1.87796.14173-2.72835-.3189-2.97638-1.20472-5.38583-2.65748-7.15748-1.87795-2.40945-4.53543-3.57874-8.04331-3.57874-3.437 0-6.12992 1.16929-8.00787 3.57874-1.87795 2.33858-2.79921 5.70472-2.79921 10.09843zm2.65748-18.88584h5.98819V96.225939l-6.16536 1.27559v-4.6063l6.12992-1.27559h6.48426v21.685021h5.95275v4.67717h-18.38976v-4.67717zm12.40157-33.838569c0-3.295275-.31889-5.633858-.92126-6.980315-.60236-1.240157-1.52362-1.913385-2.79921-2.019685.81496-1.452756 1.70079-2.870078 2.62205-4.287401 2.05512.496063 3.72047 1.559055 5.03149 3.224409 1.87796 2.338583 2.87008 5.704725 2.87008 10.098425 0 4.393701-.99212 7.759843-2.87008 10.098425-1.06299 1.34646-2.37401 2.30315-3.89763 2.90551v-.88582h-6.48426l-2.55118.53149c-1.20472-.60236-2.23228-1.41732-3.11811-2.51575 1.13386-3.61417 2.48032-7.086611 4.00394-10.488185v.318897c0 3.295276.3189 5.669292.92126 7.051181.63779 1.346457 1.66535 2.019687 3.11811 2.019687s2.48031-.67323 3.11811-2.019687c.6378-1.381889.95669-3.755905.95669-7.051181zm-1.09842-13.287401c2.37401-3.720473 4.99606-7.228347 7.86614-10.559055-.2126 3.685039-1.13386 6.555118-2.83465 8.681102-.88582 1.098425-1.91338 1.948819-3.11811 2.551181-.60236-.283464-1.24015-.531496-1.91338-.673228zm85.35827 47.19684h5.95276V96.296799l-6.12993 1.27559v-4.6063l6.09449-1.27559h6.48425v21.685031h5.98819v4.67717h-18.38976v-4.67717zm-25.19292 0h6.02362V96.296799l-6.16535 1.27559v-4.6063l6.12992-1.27559h6.44882v21.685031h6.02362v4.67717h-18.46063v-4.67717zm-25.12205 0h5.98819V96.296799l-6.16535 1.27559v-4.6063l6.12992-1.27559h6.48425v21.685031h6.02362v4.67717h-18.46063v-4.67717zm-12.79133-8.53937c0-3.29527-.28347-5.598411-.92126-6.980301-.60237-1.34646-1.62992-2.01969-3.08268-2.01969-1.45276 0-2.48032.67323-3.15354 2.01969-.60237 1.38189-.92126 3.685031-.92126 6.980301 0 3.36614.31889 5.70472.92126 7.05118.67322 1.34646 1.70078 2.05512 3.15354 2.05512s2.48031-.70866 3.08268-2.05512c.63779-1.34646.92126-3.68504.92126-7.05118zm6.80315.03543c0 4.3937-.92126 7.75985-2.79922 10.16929-1.52362 1.87796-3.57874 3.01182-6.12992 3.40158-.56693-.1063-1.20472-.14173-1.84252-.14173-.67323 0-1.31102.03543-1.91338.14173-2.58662-.35433-4.64174-1.48819-6.16536-3.40158-1.87795-2.40944-2.83464-5.77559-2.83464-10.16929 0-4.35826.95669-7.724391 2.83464-10.098411 1.87795-2.37402 4.53544-3.54331 8.04331-3.54331 3.43701 0 6.12992 1.16929 8.00787 3.54331 1.87796 2.37402 2.79922 5.740151 2.79922 10.098411zm68.66929-25.334633c0-3.295275-.3189-5.633858-.92126-6.980315-.63779-1.346456-1.66535-2.019685-3.11811-2.019685-1.45275 0-2.51575.673229-3.15354 2.019685-.60236 1.346457-.92126 3.68504-.92126 6.980315 0 3.295276.3189 5.669292.92126 7.051182.63779 1.34646 1.70079 2.01969 3.15354 2.01969 1.45276 0 2.48032-.67323 3.08268-2.01969.63779-1.38189.95669-3.755906.95669-7.051182zm6.69685 2.374016c-.28346 3.259843-1.20472 5.846456-2.72834 7.759846-1.063 1.34645-2.37402 2.30315-3.93308 2.90551v-.88583h-6.48425l-2.51575.5315c-1.20472-.60236-2.26771-1.45276-3.11811-2.55118-1.87795-2.338586-2.83465-5.704728-2.83465-10.098428 0-4.393701.9567-7.759843 2.83465-10.098426 1.87796-2.409449 4.57087-3.57874 8.04331-3.57874 3.43701 0 6.12992 1.169291 8.00788 3.57874 1.52362 1.877953 2.44488 4.464567 2.72834 7.688977-.07086.744094-.07086 1.523622-.07086 2.338582 0 .850394.03543 1.629922.07086 2.409449zm-31.85433-2.374016c0-3.295275-.28347-5.633858-.92126-6.980315-.60237-1.346456-1.62992-2.019685-3.11811-2.019685-1.45276 0-2.51575.673229-3.11811 2.019685-.6378 1.346457-.92126 3.68504-.92126 6.980315 0 3.295276.28346 5.669292.92126 7.051182.60236 1.34646 1.66535 2.01969 3.11811 2.01969 1.45275 0 2.51574-.67323 3.11811-2.01969.63779-1.38189.92126-3.755906.92126-7.051182zm6.80315.035434c0 4.3937-.92126 7.759842-2.79922 10.098428-1.09842 1.34645-2.40944 2.33858-3.9685 2.90551v-.88583h-6.44882l-2.55118.5315c-1.20472-.60236-2.23228-1.45276-3.11811-2.55118-1.87795-2.338586-2.79921-5.704728-2.79921-10.098428 0-4.393701.92126-7.759843 2.79921-10.098426 1.91339-2.409449 4.57087-3.57874 8.04331-3.57874 3.47244 0 6.12992 1.169291 8.0433 3.57874 1.87796 2.338583 2.79922 5.704725 2.79922 10.098426zm-44.32678 8.468508h5.98819V70.997587l-6.16535 1.275591v-4.641732l6.12992-1.275591h6.48425v21.685044h6.02362v4.71259h-6.02362v-1.06299h-6.48425l-5.10236 1.06299h-.8504v-4.71259zm-12.79133-8.503942c0-3.295275-.28347-5.633858-.92126-6.980315-.60237-1.346456-1.62992-2.019685-3.08268-2.019685-1.45276 0-2.48032.673229-3.15354 2.019685-.60237 1.346457-.92126 3.68504-.92126 6.980315 0 3.295276.31889 5.669292.92126 7.051182.67322 1.34646 1.70078 2.01969 3.15354 2.01969s2.48031-.67323 3.08268-2.01969c.63779-1.38189.92126-3.755906.92126-7.051182zm6.80315.035434c0 4.3937-.92126 7.759842-2.79922 10.098428-.88582 1.13386-1.91338 1.98425-3.15354 2.55118-1.38189-.67323-3.01181-.99213-4.85433-.99213-1.87795 0-3.50787.3189-4.88976.99213-1.24016-.56693-2.26772-1.41732-3.15355-2.55118-1.34645-1.62992-2.19685-3.826775-2.58661-6.484255.17716-1.133859.28346-2.374016.28346-3.68504 0-1.27559-.1063-2.480315-.24803-3.614173.38976-2.622047 1.24016-4.783464 2.55118-6.413386 1.87795-2.409449 4.53544-3.57874 8.04331-3.57874 3.43701 0 6.12992 1.169291 8.00787 3.57874 1.87796 2.338583 2.79922 5.704725 2.79922 10.098426zm68.66929-25.334646c0-3.330709-.3189-5.633858-.92126-6.980315-.63779-1.346457-1.66535-2.019685-3.11811-2.019685-1.45275 0-2.51575.673228-3.15354 2.019685-.60236 1.346457-.92126 3.649606-.92126 6.980315 0 3.295275.3189 5.633858.92126 7.051181.63779 1.346457 1.70079 2.019685 3.15354 2.019685 1.45276 0 2.48032-.673228 3.08268-2.019685.63779-1.417323.95669-3.755906.95669-7.051181zm6.69685 2.338583c-.28346 3.259842-1.20472 5.846456-2.72834 7.795275-.88583 1.098425-1.91339 1.948819-3.15355 2.551181-1.38189-.673228-3.01181-1.027559-4.85433-1.027559s-3.47244.354331-4.88976 1.027559c-1.24016-.602362-2.30315-1.452756-3.15355-2.551181-1.87795-2.374016-2.83465-5.740157-2.83465-10.098425 0-4.393701.9567-7.759843 2.83465-10.133858 1.87796-2.374016 4.57087-3.543307 8.04331-3.543307 3.43701 0 6.12992 1.169291 8.00788 3.543307 1.52362 1.913385 2.44488 4.5 2.72834 7.724409-.07086.744095-.07086 1.523622-.07086 2.338583 0 .81496.03543 1.629921.07086 2.374016zm-44.25591 6.165354h6.02362V45.698375l-6.16535 1.27559v-4.641732l6.12992-1.275591h6.44882v21.68504h6.02362v4.677165h-4.2874c-1.59449-.992126-3.54331-1.523622-5.81102-1.523622-2.26772 0-4.21654.531496-5.81103 1.523622h-2.55118v-4.677165zm-12.72047-8.503937c0-3.330709-.3189-5.633858-.92126-6.980315s-1.70079-2.019685-3.15354-2.019685c-1.45276 0-2.48032.673228-3.11811 2.019685-.60237 1.346457-.92126 3.649606-.92126 6.980315 0 3.295275.31889 5.633858.92126 7.051181.63779 1.346457 1.66535 2.019685 3.11811 2.019685 1.45275 0 2.48031-.673228 3.15354-2.019685.60236-1.417323.92126-3.755906.92126-7.051181zm6.80315.035433c0 4.358268-.99213 7.724409-2.83465 10.098425-1.06299 1.346457-2.37401 2.30315-3.93307 2.905512v-.92126h-6.48425l-2.55118.531496c-1.16929-.566929-2.19685-1.417323-3.08268-2.515748-1.87795-2.374016-2.83464-5.740157-2.83464-10.098425 0-4.393701.95669-7.759843 2.83464-10.133858 1.87796-2.374016 4.57087-3.543307 8.00788-3.543307 3.50787 0 6.16535 1.169291 8.0433 3.543307 1.84252 2.374015 2.83465 5.740157 2.83465 10.133858zm-31.99606-.035433c0-3.330709-.28347-5.633858-.92126-6.980315-.60237-1.346457-1.62992-2.019685-3.08268-2.019685h-.07087c1.48819-1.311024 3.04725-2.551181 4.64174-3.755906 1.34645.566929 2.48031 1.452756 3.437 2.657481 1.87796 2.374015 2.79922 5.740157 2.79922 10.133858 0 4.358268-.92126 7.724409-2.79922 10.098425-.88582 1.098425-1.91338 1.948819-3.15354 2.551181-1.38189-.673228-3.01181-1.027559-4.85433-1.027559-1.87795 0-3.50787.354331-4.88976 1.027559-1.24016-.602362-2.26772-1.452756-3.15355-2.551181-1.34645-1.665354-2.19685-3.862205-2.58661-6.519685.1063-.708661.17716-1.452756.24803-2.232283 2.16142-2.551181 4.46457-4.96063 6.87402-7.26378-.35434 1.38189-.56693 3.330709-.56693 5.88189 0 3.295275.31889 5.633858.92126 7.051181.67322 1.346457 1.70078 2.019685 3.15354 2.019685s2.48031-.673228 3.08268-2.019685c.63779-1.417323.92126-3.755906.92126-7.051181zm116.85827-14.031496h-6.98032v-4.641733c2.40945 1.452756 4.74803 3.011812 6.98032 4.641733z" display="inline" opacity=".36000001"/>
    </g>
  </g>
  <g display="block">
    <g transform="rotate(45 268.97410227 117.1283388)">
      <path fill="url(#e)" stroke="#000" stroke-width="6.25" d="M248.03125 35.4375c-58.67716 0-106.3125 47.604086-106.3125 106.28125 0 52.62685 38.35814 96.25709 88.59375 104.71875v37.03125H265.75V246.4375c50.23562-8.46166 88.59377-52.0919 88.59375-104.71875 0-58.677164-47.63534-106.28125-106.3125-106.28125zm0 17.71875c48.89764 0 88.59375 39.664861 88.59375 88.5625.00001 48.89764-39.69611 88.59375-88.59375 88.59375-48.89764.00001-88.59375-39.69611-88.59375-88.59375-.00001-48.897639 39.69611-88.5625 88.59375-88.5625z"/>
      <rect width="70.866142" height="157.6528" x="212.59842" y="280.64615" fill="url(#f)" stroke="url(#g)" stroke-linejoin="round" stroke-width="7.6123056" rx="20" ry="20"/>
    </g>
    <path fill="url(#h)" d="M248.03149 70.866119a35.433071 35.433071 0 1 1-70.86614 0 35.433071 35.433071 0 1 1 70.86614 0z" transform="translate(15.92121 6.436221) scale(.93308)"/>
    <path fill="url(#i)" d="M315.0625 109.375c-15.36547 42.0745-55.62842 72.1875-103 72.1875-8.64475 0-17.02349-1.10746-25.09375-3 13.75135 13.16391 32.34998 21.3125 52.875 21.3125 42.25952 0 76.56251-34.30298 76.5625-76.5625 0-4.76122-.51069-9.41608-1.34375-13.9375z"/>
  </g>
</svg>