<svg version="1.1" width="800" height="450" viewBox="0 0 21166.667 11906.25" preserveAspectRatio="xMidYMid" fill-rule="evenodd" clip-path="url(#presentation_clip_path)" xml:space="preserve" id="svg394" xmlns:xlink="http://www.w3.org/1999/xlink" xmlns="http://www.w3.org/2000/svg" xmlns:svg="http://www.w3.org/2000/svg" xmlns:rdf="http://www.w3.org/1999/02/22-rdf-syntax-ns#" xmlns:cc="http://creativecommons.org/ns#" xmlns:dc="http://purl.org/dc/elements/1.1/"><metadata id="metadata398"><rdf:RDF><cc:Work rdf:about=""><dc:format>image/svg+xml</dc:format><dc:type rdf:resource="http://purl.org/dc/dcmitype/StillImage"/></cc:Work></rdf:RDF></metadata>
  <defs class="ClipPathGroup" id="defs4">
    <clipPath id="presentation_clip_path" clipPathUnits="userSpaceOnUse">
      <rect x="0" y="0" width="34000" height="9000" id="rect7"/>
    </clipPath>
  <filter style="color-interpolation-filters:sRGB" id="filter944" x="-0.065148242" width="1.1302965" y="-0.068574868" height="1.1371497"><feFlood flood-opacity="1" flood-color="rgb(0,0,0)" result="flood" id="feFlood934"/><feComposite in="flood" in2="SourceGraphic" operator="in" result="composite1" id="feComposite936"/><feGaussianBlur in="composite1" stdDeviation="19.999998" result="blur" id="feGaussianBlur938"/><feOffset dx="0" dy="0" result="offset" id="feOffset940"/><feComposite in="SourceGraphic" in2="offset" operator="over" result="fbSourceGraphic" id="feComposite942"/><feColorMatrix result="fbSourceGraphicAlpha" in="fbSourceGraphic" values="0 0 0 -1 0 0 0 0 -1 0 0 0 0 -1 0 0 0 0 1 0" id="feColorMatrix976"/><feFlood id="feFlood978" flood-opacity="1" flood-color="rgb(0,0,0)" result="flood" in="fbSourceGraphic"/><feComposite in2="fbSourceGraphic" id="feComposite980" in="flood" operator="in" result="composite1"/><feGaussianBlur id="feGaussianBlur982" in="composite1" stdDeviation="20" result="blur"/><feOffset id="feOffset984" dx="0" dy="0" result="offset"/><feComposite in2="offset" id="feComposite986" in="fbSourceGraphic" operator="over" result="composite2"/></filter><clipPath clipPathUnits="userSpaceOnUse" id="clipPath5710"><rect style="opacity:1;fill:#b50014;fill-opacity:1;stroke:none;stroke-width:0;stroke-miterlimit:4;stroke-dasharray:none;stop-color:#000000" id="rect5712" width="1140.338" height="335.39352" x="-1674.7013" y="-850.84515"/></clipPath><linearGradient gradientUnits="userSpaceOnUse" y2="515.34216" x2="164.78203" y1="596.3551" x1="298.94608" id="linearGradient3826" xlink:href="#linearGradient3820"/><linearGradient id="linearGradient3820"><stop id="stop3822" offset="0" style="stop-color:#ffbf00;stop-opacity:1;"/><stop id="stop3824" offset="1" style="stop-color:#ffbf00;stop-opacity:0;"/></linearGradient><linearGradient id="linearGradient4366"><stop style="stop-color:#c30000;stop-opacity:1;" offset="0" id="stop4368"/><stop style="stop-color:#c30000;stop-opacity:0;" offset="1" id="stop4370"/></linearGradient><linearGradient id="linearGradient4211"><stop style="stop-color:#ffffff;stop-opacity:1;" offset="0" id="stop4213"/><stop style="stop-color:#ffffff;stop-opacity:0;" offset="1" id="stop4215"/></linearGradient><linearGradient id="linearGradient7326"><stop style="stop-color:#ffffff;stop-opacity:1;" offset="0" id="stop7328"/><stop style="stop-color:#1a1a1a;stop-opacity:0;" offset="1" id="stop7330"/></linearGradient><linearGradient id="linearGradient7182"><stop style="stop-color:#c30000;stop-opacity:1;" offset="0" id="stop7184"/><stop style="stop-color:#0000ff;stop-opacity:1;" offset="1" id="stop7186"/></linearGradient><linearGradient xlink:href="#linearGradient4366" id="linearGradient7174-6" x1="232.97354" y1="117.62118" x2="384.3255" y2="23.413179" gradientUnits="userSpaceOnUse"/><linearGradient xlink:href="#linearGradient7403-8" id="linearGradient7409-9" x1="-5175.936" y1="-406.21313" x2="1240.6494" y2="-420.46545" gradientUnits="userSpaceOnUse" gradientTransform="matrix(1.0307496,0,0,1.0717311,-1374.9243,-738.23961)"/><linearGradient id="linearGradient7403-8"><stop style="stop-color:#1a1a1a;stop-opacity:1;" offset="0" id="stop7405-2"/><stop style="stop-color:#1a1a1a;stop-opacity:0;" offset="1" id="stop7407-4"/></linearGradient><linearGradient y2="-58.443829" x2="536.875" y1="15.028065" x1="319.13092" gradientUnits="userSpaceOnUse" id="linearGradient7275-8" xlink:href="#linearGradient4366" gradientTransform="matrix(3.4608635,0,0,2.1408932,-452.37434,-189.34846)"/><linearGradient gradientTransform="translate(-3.9928932,219.81134)" y2="-289.87708" x2="-1907.4705" y1="-301.14996" x1="-2031.0033" gradientUnits="userSpaceOnUse" id="linearGradient4301" xlink:href="#linearGradient4211"/><linearGradient gradientTransform="matrix(1.0000099,0,0,0.92582453,1172.9856,3361.8363)" xlink:href="#linearGradient4366" id="linearGradient5294-3-0" x1="871.27405" y1="-2368.5632" x2="1110.8859" y2="-2363.2493" gradientUnits="userSpaceOnUse"/><linearGradient xlink:href="#linearGradient4366" id="linearGradient4372" x1="1828.5996" y1="1215.0465" x2="1905.1226" y2="1213.1677" gradientUnits="userSpaceOnUse" gradientTransform="matrix(1.1071531,0,0,1,-3909.5937,-141.26454)"/><linearGradient xlink:href="#linearGradient4366" id="linearGradient4372-1" x1="1828.5996" y1="1215.0465" x2="1905.1226" y2="1213.1677" gradientUnits="userSpaceOnUse" gradientTransform="matrix(1.3103447,0,0,1,-4196.6986,-29.121694)"/><linearGradient gradientTransform="matrix(1.0000099,0,0,0.92582453,1139.7126,2297.0925)" xlink:href="#linearGradient4366" id="linearGradient5294-3-01" x1="871.27405" y1="-2368.5632" x2="1110.8859" y2="-2363.2493" gradientUnits="userSpaceOnUse"/><linearGradient y2="-2363.2493" x2="1110.8859" y1="-2368.5632" x1="871.27405" gradientTransform="matrix(1.0000099,0,0,0.92582453,-31.885436,3691.5135)" gradientUnits="userSpaceOnUse" id="linearGradient4820" xlink:href="#linearGradient4366"/><path style="fill:none;stroke:#000000;stroke-width:1.12389px;stroke-linecap:butt;stroke-linejoin:miter;stroke-opacity:1" d="m 262.21947,569.29325 c -41.88128,-73.17641 20.06001,-134.84382 74.89854,-132.27133 45.79011,-0.9193 112.36127,51.62471 72.5885,132.27133" id="path6733-6-6"/><path style="fill:none;stroke:#000000;stroke-width:1.12389px;stroke-linecap:butt;stroke-linejoin:miter;stroke-opacity:1" d="m 262.21947,569.29325 c -41.88128,-73.17641 20.06001,-134.84382 74.89854,-132.27133 45.79011,-0.9193 112.36127,51.62471 72.5885,132.27133" id="path6733-6-6-9"/></defs>
  

  
<rect style="opacity:0.98888;fill:#b50014;fill-opacity:1;stroke-width:9.32579;stop-color:#000000" id="rect1508" width="21166.666" height="11906.251" x="-0.00075851253" y="6.6665343e-05"/><g id="g84470" transform="matrix(13.229167,0,0,13.229167,2560.0506,-2215.2059)"><circle style="fill:#b50014;fill-opacity:1;stroke-width:45.6888;stop-color:#000000" id="path980" cx="695.41547" cy="252.05028" r="256" transform="rotate(14.999999)"/><g id="g1184" transform="matrix(-0.31988188,0,0,0,494.27627,392.16053)"><path style="fill:#fcc72e;fill-opacity:1;stroke:#b50014;stroke-width:215.195;stroke-miterlimit:4;stroke-dasharray:none;stroke-opacity:1;stop-color:#000000" id="path29415" transform="matrix(0.07522825,0,0,-0.07909927,-252.96798,632.18677)" d="M 5.435111e-5,1023.9999 -232.49523,320.00226 -973.88172,316.43342 -376.18517,-122.22997 -601.89202,-828.43326 4.3718697e-5,-395.5445 601.89203,-828.43329 l -225.7068,706.20335 597.69656,438.66331 -741.38654,3.56891 z"/></g><g id="g3396" transform="matrix(1.2076872,0,0,1.2076872,-125.95903,-94.209649)"><g id="g87038" transform="matrix(5.818182,0,0,5.818182,420.30257,241.87242)" style="fill:#fcc72e;fill-opacity:1"><g id="g87032" style="fill:#fcc72e;fill-opacity:1"><path class="st3" d="m 32,10.1 c -12.2,0 -22,9.8 -22,22 0,12.2 9.8,22 22,22 12.2,0 22,-9.8 22,-22 0,-12.2 -9.8,-22 -22,-22 z M 14.1,22.9 c 0.2,0.8 -0.2,2.4 -0.5,4.5 -0.4,2.5 1.6,2 1.6,4.4 0,2.4 1.8,3.4 1.5,3.6 -0.2,0.2 -1.2,0.6 0.2,3.7 1.4,3.1 2.7,4 2.8,5.7 0.2,1.7 2,4.2 2,4.2 l 0.1,0.5 c -6,-3.5 -10,-10 -10,-17.4 0,-3.3 0.8,-6.4 2.3,-9.2 z M 24,50 c -0.1,-0.4 0.1,-2.8 3,-3.8 2.9,-1 2.4,-2.2 3.3,-3.5 0.9,-1.2 1,-2.2 -0.6,-2.5 -1.6,-0.4 -3.4,-0.7 -4.8,-3 -1.5,-2.3 -3.5,-2.4 -4.6,-3.1 -1.1,-0.7 -2,-0.6 -3.3,-0.8 -1.3,-0.2 -0.9,-3.9 -0.8,-4.7 0.1,-0.8 -0.8,0.3 -1.5,-0.3 -0.7,-0.6 0.6,-3.2 1.9,-3.1 1.3,0.1 1,0.7 1.2,2.1 0.2,1.4 0.7,1.1 0.8,0.6 0.1,-0.4 0.2,-2.3 0.6,-2.9 0.4,-0.6 0.5,-2.2 2,-2.1 1.4,0.1 1.4,-1.3 2.5,-0.9 1.1,0.4 1.8,0.1 1.1,-0.5 -0.7,-0.6 -0.3,-1.2 0.9,-0.8 1.2,0.4 1.2,-1.7 1,-2.7 -0.2,-1.1 -1.1,-1.4 -2.1,-0.7 -1.1,0.7 -1.9,0.4 -1.3,-0.7 0.5,-1.1 2.7,-0.2 4,0.4 1.3,0.5 1.6,-1.4 0.9,-2.4 -0.7,-1 -0.8,-0.5 -2.8,-0.4 -0.8,0.1 -0.7,-0.4 -0.3,-0.9 2.2,-0.8 4.6,-1.3 7.1,-1.3 2.5,0 5,0.5 7.2,1.3 0.3,0.4 0.4,0.7 0.2,0.8 -0.8,0.5 -1.5,0.1 -1.3,1.6 0.2,1.5 1.4,3.4 2.3,2.8 0.9,-0.6 2.4,0.2 1.1,1 -1.3,0.8 -1.7,0.8 -2.3,1.3 -0.6,0.5 -0.3,0.3 0.3,1 0.6,0.7 0.5,0.8 -0.3,1.2 -0.9,0.3 -1.4,1.1 -0.5,2 0.8,0.9 1.4,1.6 2.3,0 0.9,-1.6 1.1,-3 1.9,-2.5 0.8,0.4 1.7,1.7 2.3,1 0.6,-0.7 0.5,-1.2 1.3,-0.7 0.8,0.5 3.7,0.6 1.8,2 -2,1.4 -1.6,2.1 -2.5,1.9 -0.9,-0.2 -5.1,-1.1 -6.1,1.3 -1,2.3 -4.5,4.2 -2.6,6.5 1.8,2.3 1.4,3.9 4,4.3 2.6,0.3 3.9,-0.8 4.6,0.4 0.7,1.2 0.1,1.3 0.2,3.2 0,0.9 0.5,2.6 1,4.1 -3.7,3.8 -8.8,6.2 -14.5,6.2 C 29.7,52.7 27,52.1 24.5,51 24,50.3 24,50.1 24,50 Z" id="path87030" style="fill:#fcc72e;fill-opacity:1"/></g><g id="g87036" style="fill:#fcc72e;fill-opacity:1"><path class="st3" d="m 32.1,16.4 c 0.6,-0.4 0.7,0.1 1.2,-1.6 0.5,-1.8 -2.1,-2 -3.3,-1.8 -1.2,0.2 -0.7,0.7 -0.7,0.7 0.4,0.7 0.7,3.1 -0.1,3.9 -0.7,0.9 0.6,1.1 1.2,0.2 0.6,-0.9 1,-1 1.7,-1.4 z" id="path87034" style="fill:#fcc72e;fill-opacity:1"/></g></g><g transform="matrix(0.82357655,0,0,0.82357655,112.32281,124.22089)" id="g84448" style="fill:#fcc72e;fill-opacity:1"><g transform="translate(-1.081)" id="g84428" style="fill:#fcc72e;fill-opacity:1"><path d="m 663.853,587.03 c -2.694,3.079 -6.18,5.956 -9.466,8.608 -21.233,-21.943 -46.16,-46.262 -69.854,-46.262 -14.69,0 -25.27,11.182 -37.613,19.072 -17.13,10.949 -40.626,17.115 -60.761,9.08 -10.83,-4.113 -21.323,-10.17 -29.165,-20.01 15.848,10.93 39.58,12.4 57.472,4.977 19.776,-8.205 39.904,-19.099 62.44,-19.099 33.223,0 64.797,22.473 86.947,43.635 z M 418.311,518.016 c 21.996,25.039 57.87,16.983 87.234,23.237 4.087,0.87 7.926,2.227 12.313,1.554 -3.49,-2.214 -8.118,-2.463 -12.15,-3.982 -22.783,-8.583 -26.335,-32.967 -38.804,-49.748 15.926,10.587 29.12,25.082 44.012,38.703 10.364,9.48 23.277,13.537 36.67,16.262 -3.218,1.176 -7.428,0.899 -10.894,1.758 -24.056,5.968 -50.727,15.388 -76.324,6.941 -16.52,-5.451 -33.71,-18.361 -42.057,-34.725 z m -35.258,-57.95 c 13.72,31.063 48.191,33.496 71.111,52.552 4.358,3.624 8.679,6.959 13.466,9.191 l 0.247,-0.25 c -5.289,-4.785 -11.012,-10.488 -15.109,-16.44 -13.1,-19.035 -8.74,-45.052 -18.841,-65.232 9.177,10.988 17.784,22.302 23.068,34.883 8.503,20.246 11.392,43.342 30.463,58.726 -20.64,-6.81 -44.452,-5.454 -63.039,-17.628 -19.537,-12.797 -37.644,-32.996 -41.366,-55.802 z M 368.356,397.22 c 1.984,27.368 31.12,41.987 45.014,64.484 2.967,4.805 6.02,9.765 10.33,13.645 -0.672,-2.913 -3.07,-5.495 -4.39,-8.354 -4.455,-9.653 -6.472,-20.823 -5.36,-32.31 1.354,-13.975 7.18,-26.953 4.944,-41.655 11.975,25.848 8.112,58.162 15.033,86.11 1.531,6.183 5.296,11.594 7.616,17.45 -11.766,-8.951 -27.185,-16.896 -40.1,-27.076 -12.49,-9.845 -23.332,-21.384 -28.967,-36.399 -4.06,-10.819 -5.117,-23.724 -4.12,-35.895 z m 0.814,-50.426 c 1.405,-6.108 2.48,-12.43 5.138,-18.033 -5.031,25.817 12.144,44.466 18.008,66.802 2.21,8.417 2.966,17.36 6.37,25.215 0.317,0.17 0.592,-0.16 0.788,-0.414 -8.473,-23.771 3.948,-45.74 16.049,-64.477 3.18,-4.925 4.712,-10.66 6.197,-16.458 1.308,10.761 -0.982,23.218 -2.973,34.322 -2.563,14.296 -7.449,27.695 -11.332,41.488 -2.557,8.617 -1.883,18.342 -0.571,27.37 l -1.234,-0.984 C 396.601,424.993 378.826,412 373.458,393.847 369.168,379.339 366.2,362.578 369.17,346.794 Z m 9.502,-27.771 c 0,-19.537 7.607,-35.474 19.018,-50.024 0.331,-0.165 0.567,-0.497 0.994,-0.42 -12.561,19.109 -1.128,43.229 -2.742,64.902 l -1.657,22.244 c 0.246,0.162 0.246,0.83 0.83,0.574 0.742,-2.48 0.967,-5.118 1.399,-7.679 3.024,-17.932 18.77,-30.414 32.125,-43.074 a 28.528,28.528 0 0 0 6.961,-10.342 c -1.11,8.933 -3.602,18.09 -7.612,26.208 -10.279,20.81 -30.132,37.608 -33.703,61.257 -1.731,-22.665 -15.613,-39.514 -15.613,-63.646 z m 33.112,-65.903 c 6.316,-7.004 13.396,-12.46 21.824,-14.617 -16.366,11.253 -15.477,31.366 -20.488,48.183 -1.832,6.149 -4.525,11.91 -5.957,18.265 l 0.415,0.33 c 2.722,-7.184 7.394,-14.09 13.481,-19.833 11.511,-10.86 28.818,-17.434 34.514,-33.32 -0.26,22.076 -19.079,38.858 -36.266,51.84 -7.71,5.824 -14.26,13.642 -18.258,21.838 0.668,-6.1 0.971,-11.175 0.427,-17.129 -1.764,-19.285 -2.909,-40.904 10.308,-55.557 z m 66.428,-37.117 c -12.146,10.658 -20.25,24.377 -29.582,36.709 -7.76,10.257 -18.409,16.612 -27.567,25.219 4.943,-10.256 5.856,-22.008 12.134,-31.93 10.735,-16.967 28.478,-23.552 45.015,-29.998 z" fill="#ffffff" id="a" style="fill:#fcc72e;fill-opacity:1"/><use transform="matrix(-1,0,0,1,1202.2,0)" xlink:href="#a" width="100%" height="100%" id="use84426" x="0" y="0" style="fill:#fcc72e;fill-opacity:1"/></g></g><path style="fill:#fcc72e;fill-opacity:1;stroke:#b50014;stroke-width:122.49;stroke-miterlimit:4;stroke-dasharray:none;stroke-opacity:1;stop-color:#000000" id="path29415-2" transform="matrix(0.05519027,0,0,-0.05803019,606.4844,435.39269)" d="M 5.435111e-5,1023.9999 -232.49523,320.00226 -973.88172,316.43342 -376.18517,-122.22997 -601.89202,-828.43326 4.3718697e-5,-395.5445 601.89203,-828.43329 l -225.7068,706.20335 597.69656,438.66331 -741.38654,3.56891 z"/></g></g><g id="g5859" transform="matrix(2.4267506,0,0,2.4267506,-65364.772,-88460.59)" style="fill:#ffffff"><g aria-label="PROLEWIKI" transform="scale(0.99397394,1.0060626)" id="text868" style="font-size:1178.48px;font-family:'Linux Libertine';-inkscape-font-specification:'Linux Libertine';letter-spacing:-44.1929px;stroke-width:26.0632"><path d="m 29466.572,39212.165 v 275.055 q 21.291,5.754 89.767,5.754 87.465,0 131.198,-43.157 44.308,-43.157 44.308,-135.801 0,-102.427 -44.883,-139.83 -44.884,-37.403 -117.963,-37.403 -102.427,0 -102.427,75.382 z m -100.125,36.827 q 0,-70.778 -18.413,-87.465 -17.839,-17.263 -84.013,-19.565 -5.754,-4.603 -5.754,-18.989 0,-14.386 5.754,-20.14 94.37,2.302 151.913,2.302 23.593,0 81.136,-4.028 58.118,-4.028 80.56,-4.028 76.532,0 131.773,20.14 55.242,19.564 82.287,52.364 27.045,32.224 37.978,62.146 11.509,29.923 11.509,60.996 0,41.431 -14.386,81.135 -13.81,39.13 -43.733,76.533 -29.922,36.827 -87.465,59.844 -56.967,22.442 -133.5,22.442 -58.693,0 -95.521,-11.509 v 200.25 q 0,69.627 22.442,86.89 22.442,16.687 97.823,20.715 5.754,5.755 5.754,20.14 0,13.811 -5.754,18.414 -117.963,-2.302 -169.752,-2.302 -47.185,0 -153.064,2.302 -5.754,-4.603 -5.754,-18.414 0,-14.385 5.754,-20.14 66.174,-2.301 84.013,-19.564 18.413,-17.263 18.413,-88.041 z" id="path1263"/><path d="m 30069.061,39337.121 q -70.922,0 -70.922,54.651 v 195.66 h 40.884 q 69.253,0 106.383,-27.951 37.129,-28.369 37.129,-102.628 0,-119.732 -113.474,-119.732 z m -70.922,423.86 q 0,51.314 13.35,63.829 13.35,12.099 60.909,14.185 3.338,4.172 3.338,14.601 0,10.013 -3.338,13.35 -75.093,-1.669 -110.137,-1.669 -34.209,0 -110.971,1.669 -4.172,-3.337 -4.172,-13.35 0,-10.429 4.172,-14.601 47.976,-1.669 60.909,-14.185 13.35,-12.515 13.35,-63.829 v -342.509 q 0,-51.314 -13.35,-63.412 -12.933,-12.516 -60.909,-14.184 -4.172,-3.338 -4.172,-13.767 0,-10.43 4.172,-14.602 80.517,1.669 110.137,1.669 14.601,0 50.062,-2.92 35.461,-2.921 56.737,-2.921 50.48,0 85.523,7.927 35.044,7.509 62.161,32.957 45.473,42.553 45.473,106.8 0,58.823 -37.129,95.952 -37.13,37.13 -76.763,50.063 l 108.051,179.389 q 19.608,32.541 37.547,49.228 17.939,16.687 44.222,16.687 5.84,11.264 0.834,20.442 -12.098,5.841 -35.878,5.841 -65.915,0 -112.64,-75.928 l -91.363,-148.518 q -10.43,-17.104 -30.455,-24.613 -20.025,-7.927 -69.67,-7.927 z" id="path1265"/><path d="m 30576.804,39333.784 q -70.087,0 -119.732,63.412 -49.646,62.995 -49.646,188.567 0,118.064 59.658,187.734 60.075,69.67 143.094,69.67 75.094,0 122.653,-65.499 47.976,-65.498 47.976,-177.303 0,-124.739 -57.989,-195.66 -57.988,-70.921 -146.014,-70.921 z m 286.189,250.311 q 0,106.799 -52.983,181.892 -35.878,51.314 -91.781,79.683 -55.485,27.951 -125.155,27.951 -112.64,0 -190.237,-75.093 -77.179,-75.094 -77.179,-198.163 0,-128.076 70.922,-212.765 70.921,-84.688 191.488,-84.688 118.897,0 196.911,76.345 78.014,75.927 78.014,204.838 z" id="path1267"/><path d="m 30976.496,39865.277 q -44.222,0 -110.972,1.669 -4.171,-3.337 -4.171,-13.35 0,-10.429 4.171,-14.601 47.977,-1.669 60.909,-14.185 13.35,-12.515 13.35,-63.829 v -342.509 q 0,-51.314 -13.35,-63.412 -12.932,-12.516 -60.909,-14.184 -4.171,-3.338 -4.171,-13.767 0,-10.43 4.171,-14.602 78.431,1.669 110.137,1.669 34.209,0 110.971,-1.669 3.338,4.172 3.338,14.602 0.417,10.012 -3.338,13.767 -47.976,1.668 -61.326,14.184 -12.932,12.098 -12.932,63.412 v 353.773 q 0,32.541 11.264,46.308 11.681,13.35 37.546,13.35 h 53.817 q 62.578,0 93.449,-29.203 31.289,-29.621 45.891,-82.603 14.601,-2.503 27.951,4.172 -8.343,74.259 -22.111,142.677 -78.848,-1.669 -101.793,-1.669 z" id="path1269"/><path d="m 31495.92,39556.978 q 52.148,0 64.246,-10.013 12.099,-10.429 13.767,-48.393 3.338,-4.172 13.35,-4.172 10.43,0 14.602,4.172 -1.669,40.884 -1.669,73.841 0,30.872 1.669,75.094 -4.172,4.172 -14.602,4.172 -10.012,0 -13.35,-4.172 -1.668,-22.945 -5.423,-32.958 -3.338,-10.012 -20.442,-17.522 -17.105,-7.926 -52.148,-7.926 h -77.597 v 188.985 q 0,30.037 10.43,42.135 10.847,11.682 37.547,11.682 h 98.872 q 81.352,0 112.223,-111.806 15.436,-3.338 29.62,4.172 -10.429,67.584 -31.288,142.677 -68.419,-1.669 -109.72,-1.669 h -183.562 q -47.976,0 -110.971,1.669 -3.337,-3.337 -3.337,-13.35 0,-10.429 3.337,-14.601 47.976,-1.669 60.909,-14.185 13.35,-12.515 13.35,-63.829 v -342.509 q 0,-51.314 -13.35,-63.412 -12.933,-12.516 -60.909,-14.184 -3.337,-3.338 -3.337,-13.767 0,-10.43 3.337,-14.602 68.419,1.669 110.137,1.669 h 217.771 q 22.11,0 42.135,-3.338 3.338,0 3.338,2.503 6.675,29.203 18.773,123.904 -13.767,6.675 -28.368,4.172 -16.271,-51.313 -34.21,-72.173 -17.939,-20.859 -62.16,-20.859 h -64.247 q -33.374,0 -45.056,12.516 -11.264,12.098 -11.264,42.135 v 153.942 z" id="path1271"/><path d="m 32642.074,39199.505 q 3.453,-10.358 3.453,-18.414 0,-8.631 -2.302,-14.385 -2.302,-6.33 -9.782,-10.358 -6.905,-4.028 -12.66,-6.33 -5.754,-2.301 -17.262,-4.028 -10.934,-1.726 -18.99,-2.301 -7.48,-0.576 -20.14,-1.727 -4.603,-4.603 -4.603,-18.989 0,-14.386 4.603,-20.14 94.371,2.302 129.472,2.302 33.95,0 102.427,-2.302 5.754,5.754 5.754,20.14 0,13.81 -5.754,18.989 -44.884,2.302 -66.75,20.14 -21.291,17.263 -34.526,51.214 l -237.077,635.274 q -10.358,30.498 -27.045,30.498 -16.112,0.575 -27.046,-31.649 l -135.226,-391.292 q -11.508,-32.8 -16.687,-32.8 -6.905,0 -20.14,29.347 l -175.506,394.745 q -14.386,31.649 -30.498,32.224 -15.536,0 -25.894,-32.224 l -221.541,-637.576 q -15.536,-46.034 -29.347,-55.817 -13.234,-9.782 -54.665,-12.084 -4.604,-4.603 -4.604,-18.989 0,-14.386 4.604,-20.14 68.476,2.302 109.907,2.302 58.694,0 136.377,-2.302 5.754,5.754 5.754,20.14 0.575,13.81 -5.754,18.989 -36.252,2.302 -52.365,11.509 -15.536,9.207 -6.329,37.978 l 172.053,520.764 5.179,1.151 152.489,-345.258 q 10.358,-23.593 10.933,-41.431 0,-10.358 -8.631,-36.252 l -27.046,-78.258 q -23.592,-66.175 -98.973,-70.203 -4.604,-4.603 -4.604,-18.989 0,-14.386 4.604,-20.14 75.381,2.302 117.963,2.302 50.637,0 147.31,-2.302 5.754,5.754 5.754,20.14 0,13.81 -5.754,18.989 -16.688,1.151 -24.168,2.302 -7.481,1.151 -20.716,5.754 -12.659,4.604 -14.961,11.509 -2.302,6.33 -6.905,19.564 -4.028,12.66 5.754,31.074 l 161.696,497.746 4.028,1.151 z" id="path1273"/><path d="m 32926.724,39760.981 q 0,51.314 13.35,63.829 13.35,12.099 60.909,14.185 3.338,4.172 3.338,14.601 0.417,10.013 -3.338,13.35 -76.762,-1.669 -110.137,-1.669 -34.209,0 -110.971,1.669 -4.172,-3.337 -4.172,-13.35 0,-10.429 4.172,-14.601 47.976,-1.669 60.909,-14.185 13.35,-12.515 13.35,-63.829 v -342.509 q 0,-51.314 -13.35,-63.412 -12.933,-12.516 -60.909,-14.184 -4.172,-3.338 -4.172,-13.767 0,-10.43 4.172,-14.602 80.517,1.669 110.137,1.669 35.878,0 110.971,-1.669 3.338,4.172 3.338,14.602 0.417,10.012 -3.338,13.767 -47.976,1.668 -61.326,14.184 -12.933,12.098 -12.933,63.412 z" id="path1275"/><path d="m 33136.18,39760.981 q 0,51.314 13.35,63.829 13.35,12.099 60.909,14.185 3.338,4.172 3.338,14.601 0.417,10.013 -3.338,13.35 -76.762,-1.669 -110.137,-1.669 -34.209,0 -110.971,1.669 -4.172,-3.337 -4.172,-13.35 0,-10.429 4.172,-14.601 47.976,-1.669 60.909,-14.185 13.35,-12.515 13.35,-63.829 v -342.509 q 0,-51.314 -13.35,-63.412 -12.933,-12.516 -60.909,-14.184 -4.172,-3.338 -4.172,-13.767 0,-10.43 4.172,-14.602 76.762,1.669 110.137,1.669 32.54,0 110.971,-1.669 3.338,4.172 3.338,14.602 0.417,10.012 -3.338,13.767 -47.976,1.668 -61.326,14.184 -12.933,12.098 -12.933,63.412 v 150.187 q 39.633,-3.338 67.584,-33.375 l 141.009,-150.187 q 12.932,-13.767 16.27,-22.528 3.337,-9.178 -3.755,-13.35 -6.675,-4.171 -14.184,-5.423 -7.092,-1.252 -22.111,-2.92 -4.172,-3.338 -4.589,-13.767 0,-10.43 4.589,-14.602 63.412,1.669 96.37,1.669 28.368,0 81.351,-1.669 4.172,4.172 4.172,14.602 0,10.012 -4.172,13.767 -22.111,1.668 -35.461,4.172 -13.35,2.503 -33.375,13.349 -20.024,10.43 -39.215,30.038 l -125.573,128.91 q -30.037,30.872 -29.62,42.136 0,8.343 10.847,21.276 l 187.316,221.943 q 12.098,14.601 25.866,22.945 14.184,7.926 23.362,9.595 9.595,1.669 25.865,3.755 4.172,4.172 4.172,14.601 0,10.013 -4.172,13.35 -56.32,-1.669 -86.357,-1.669 -12.098,0 -45.89,1.669 -3.338,0 -4.589,-5.006 -3.338,-23.78 -30.455,-59.24 l -134.333,-168.96 q -24.614,-30.872 -70.922,-32.541 z" id="path1277"/><path d="m 33635.996,39760.981 q 0,51.314 13.35,63.829 13.35,12.099 60.909,14.185 3.338,4.172 3.338,14.601 0.417,10.013 -3.338,13.35 -76.762,-1.669 -110.137,-1.669 -34.209,0 -110.971,1.669 -4.172,-3.337 -4.172,-13.35 0,-10.429 4.172,-14.601 47.976,-1.669 60.909,-14.185 13.35,-12.515 13.35,-63.829 v -342.509 q 0,-51.314 -13.35,-63.412 -12.933,-12.516 -60.909,-14.184 -4.172,-3.338 -4.172,-13.767 0,-10.43 4.172,-14.602 80.517,1.669 110.137,1.669 35.878,0 110.971,-1.669 3.338,4.172 3.338,14.602 0.417,10.012 -3.338,13.767 -47.976,1.668 -61.326,14.184 -12.933,12.098 -12.933,63.412 z" id="path1279"/></g><g aria-label="The proletarian encyclopedia" id="text1020" style="font-size:470.597px;font-family:rockwell;-inkscape-font-specification:rockwell;text-align:center;letter-spacing:-10.1963px;text-anchor:middle;stroke-width:44.1929"><path d="m 28813.755,40572.433 q 0,10.11 0.46,16.774 0.689,6.434 2.987,11.489 2.298,4.826 4.826,7.353 2.757,2.528 8.731,4.366 5.975,1.609 11.719,2.068 5.975,0.46 16.775,0.92 2.068,2.068 2.068,7.812 0,5.515 -2.068,7.583 -46.876,-0.919 -65.259,-0.919 -19.991,0 -65.948,0.919 -2.068,-2.068 -2.068,-7.583 0,-5.744 2.068,-7.812 10.8,-0.46 16.545,-0.92 5.974,-0.459 11.948,-2.068 5.975,-1.838 8.502,-4.366 2.758,-2.527 5.056,-7.353 2.297,-5.055 2.987,-11.489 0.689,-6.664 0.689,-16.774 v -181.07 q 0,-23.208 -5.055,-34.927 -4.826,-11.719 -17.234,-11.719 h -22.978 q -24.587,0 -39.983,11.49 -15.395,11.259 -22.059,38.373 -10.34,0 -16.085,-2.297 9.192,-39.064 11.719,-68.246 0,-1.379 2.068,-1.379 47.795,3.677 109.607,3.677 h 40.442 q 38.604,0 92.603,-2.068 12.408,-0.46 23.208,-3.677 10.8,-3.447 21.6,-8.732 l 11.719,-5.744 q 6.204,0 6.204,4.595 -2.068,18.153 -2.068,49.404 l -0.23,101.334 q 0,5.745 3.906,0.92 0.46,-0.69 0.69,-0.92 34.237,-38.144 79.964,-38.144 26.885,0 39.064,16.085 7.582,9.881 10.11,25.047 2.528,15.165 2.528,37.914 v 70.084 q 0,11.949 0.919,19.072 0.919,7.123 2.527,11.949 1.609,4.825 5.745,7.123 4.366,2.068 8.732,3.217 4.595,0.919 13.787,1.609 1.838,2.068 1.838,7.812 0,5.515 -1.838,7.583 -40.442,-0.919 -50.093,-0.919 -8.272,0 -47.795,0.919 -1.838,-2.068 -1.838,-7.583 0,-5.744 1.838,-7.812 10.34,-0.92 14.936,-2.069 4.825,-1.378 8.502,-5.744 3.906,-4.596 4.825,-12.408 0.919,-7.813 0.919,-22.749 v -71.463 q 0,-24.587 -5.744,-36.306 -4.136,-8.042 -11.03,-12.408 -6.663,-4.596 -14.017,-4.596 -14.246,0 -30.561,7.583 -16.314,7.353 -29.642,20.221 -8.042,8.962 -8.042,19.762 v 77.207 q 0,15.166 0.689,22.978 0.919,7.813 4.596,12.409 3.676,4.595 8.272,5.744 4.596,1.149 14.706,1.839 2.068,2.068 2.068,7.812 0,5.515 -2.068,7.583 -39.523,-0.919 -46.416,-0.919 -13.098,0 -51.702,0.919 -2.068,-2.068 -2.068,-7.583 0,-5.744 2.068,-7.812 7.813,-0.46 11.949,-0.92 4.136,-0.689 8.502,-2.297 4.596,-1.839 6.434,-4.366 1.838,-2.528 3.447,-7.353 1.608,-4.826 2.068,-11.26 0.46,-6.664 0.46,-16.774 v -198.074 q 0,-6.433 -2.298,-11.489 -2.298,-5.055 -5.745,-8.272 -3.447,-3.217 -9.651,-5.285 -5.974,-2.298 -11.259,-3.217 -5.285,-0.919 -13.787,-1.379 -8.272,-0.459 -13.787,-0.459 -5.515,0 -14.706,0.23 -9.192,0.229 -13.558,0.229 h -10.34 q -12.178,0 -17.004,11.949 -4.596,11.949 -4.596,36.076 z" style="-inkscape-font-specification:'Linux Libertine G'" id="path1300"/><path d="m 29180.089,40497.064 85.25,-1.379 q 6.893,0 6.893,-6.434 0,-14.017 -3.447,-24.127 -3.446,-10.34 -9.421,-15.396 -5.974,-5.285 -12.408,-7.582 -6.434,-2.298 -13.787,-2.298 -4.596,0 -9.192,0.919 -4.365,0.689 -11.719,4.136 -7.123,3.217 -13.097,8.962 -5.745,5.744 -11.26,17.004 -5.285,11.259 -7.812,26.195 z m 123.394,89.156 q 7.812,0.689 9.88,7.353 -31.71,40.902 -80.194,40.902 -46.187,0 -71.922,-30.102 -22.06,-25.276 -22.06,-69.625 0,-20.68 5.745,-38.833 5.974,-18.153 15.625,-31.021 9.651,-12.868 21.83,-22.289 12.408,-9.421 25.276,-13.787 13.097,-4.595 25.506,-4.595 79.505,0 79.505,81.803 0,8.042 -8.732,8.042 l -125.232,-0.919 q 0,39.752 14.936,64.569 10.34,17.004 23.898,25.506 13.787,8.272 27.574,8.272 19.761,0 32.169,-5.515 12.638,-5.744 26.196,-19.761 z" style="-inkscape-font-specification:'Linux Libertine G'" id="path1302"/><path d="m 29511.495,40474.086 q -4.366,5.055 -5.974,9.421 -1.379,4.136 -1.379,11.259 v 85.709 q 0,12.409 1.838,17.004 2.068,4.596 9.421,11.26 5.745,5.055 15.396,7.583 9.881,2.298 17.923,2.298 18.842,0 32.399,-7.813 13.558,-8.043 20.681,-21.14 7.123,-13.328 10.11,-27.574 3.217,-14.247 3.217,-30.102 0,-38.833 -16.544,-62.961 -16.315,-24.127 -39.523,-24.127 -10.11,0 -24.127,8.732 -14.017,8.732 -23.438,20.451 z m -7.353,-17.464 q 0,2.528 1.379,2.987 1.378,0.46 2.297,-0.919 14.017,-16.315 31.021,-25.736 17.234,-9.651 33.549,-9.651 23.208,0 42.51,13.558 19.531,13.557 30.101,35.616 10.57,22.059 10.57,46.876 0,54.918 -34.697,88.926 -27.574,26.196 -69.395,26.196 -22.978,0 -40.901,-7.124 -3.677,-1.838 -5.055,-1.378 -1.379,0.459 -1.379,4.825 v 50.782 q 0,10.341 0.459,16.545 0.46,6.434 2.298,11.489 1.839,5.055 3.907,7.353 2.068,2.528 7.123,4.136 5.285,1.838 10.11,2.298 5.056,0.689 14.707,1.149 2.068,2.068 2.068,7.583 0,5.744 -2.068,7.812 -40.442,-0.919 -56.987,-0.919 -13.327,0 -52.85,0.919 -2.068,-2.068 -2.068,-7.812 0,-5.515 2.068,-7.583 12.179,-0.69 17.693,-1.838 5.515,-0.92 9.881,-5.515 4.366,-4.596 5.285,-12.638 1.149,-7.813 1.149,-22.979 v -200.831 q 0,-10.57 -1.149,-16.085 -0.919,-5.744 -4.825,-9.191 -3.907,-3.447 -8.962,-4.596 -4.825,-1.149 -15.625,-2.068 -0.69,-2.297 -1.149,-6.663 -0.46,-4.366 0.23,-6.664 37.684,-4.826 59.284,-13.557 3.906,0 5.515,3.676 3.906,8.272 3.906,31.021 z" style="-inkscape-font-specification:'Linux Libertine G'" id="path1304"/><path d="m 29747.397,40461.447 q 0,2.528 0.689,3.447 0.919,0.69 2.988,-2.527 9.421,-16.085 23.208,-27.574 13.787,-11.49 28.952,-11.49 13.558,0 20.911,7.353 7.353,7.124 7.353,15.166 0,8.962 -6.894,16.315 -6.663,7.353 -15.165,7.353 -4.366,0 -7.813,-1.838 -3.217,-2.068 -7.353,-6.894 l -4.136,-5.055 q -3.217,-3.217 -9.881,-3.217 -5.515,0 -21.6,22.978 -11.259,16.774 -11.259,31.481 v 65.488 q 0,10.11 0.46,16.544 0.459,6.434 2.297,11.49 2.068,4.825 4.136,7.353 2.069,2.298 7.124,4.136 5.285,1.608 10.11,2.298 4.826,0.459 14.477,1.149 2.068,2.068 2.068,7.812 0,5.515 -2.068,7.583 -40.442,-0.919 -56.987,-0.919 -14.246,0 -53.769,0.919 -2.068,-2.068 -2.068,-7.583 0,-5.744 2.068,-7.812 12.408,-0.69 17.923,-1.839 5.745,-1.149 10.111,-5.744 4.595,-4.596 5.744,-12.409 1.149,-7.812 1.149,-22.978 v -91.684 q 0,-10.57 -1.149,-16.085 -0.919,-5.744 -4.825,-9.191 -3.907,-3.447 -8.962,-4.596 -4.825,-1.149 -15.625,-2.068 -0.69,-2.297 -1.149,-6.663 -0.46,-4.366 0.23,-6.664 37.684,-4.826 59.284,-13.557 3.906,0 5.515,3.676 3.906,8.272 3.906,35.846 z" style="-inkscape-font-specification:'Linux Libertine G'" id="path1306"/><path d="m 29843.361,40533.37 q 0,-46.646 25.965,-77.208 28.034,-32.859 73.761,-32.859 20.91,0 37.914,6.434 17.004,6.204 28.034,16.775 11.029,10.34 18.612,24.357 7.583,14.016 10.8,28.723 3.447,14.476 3.447,29.642 0,22.748 -7.583,43.429 -7.583,20.68 -22.978,35.616 -26.885,26.196 -69.165,26.196 -19.302,0 -35.846,-5.745 -16.545,-5.974 -28.034,-15.855 -11.259,-10.111 -19.302,-23.208 -8.042,-13.098 -11.949,-27.344 -3.676,-14.247 -3.676,-28.953 z m 92.603,-93.522 q -52.161,0 -52.161,82.722 0,14.936 3.446,30.561 3.447,15.396 10.571,30.561 7.123,15.166 20.45,24.817 13.328,9.651 30.562,9.651 9.191,0 17.693,-3.447 8.502,-3.447 16.774,-11.029 8.272,-7.813 13.098,-22.979 5.055,-15.395 5.055,-36.535 0,-50.323 -17.464,-77.208 -17.233,-27.114 -48.024,-27.114 z" style="-inkscape-font-specification:'Linux Libertine G'" id="path1308"/><path d="m 30095.807,40572.433 v -205.656 q 0,-9.422 -0.459,-15.626 -0.23,-6.204 -1.839,-10.57 -1.608,-4.366 -2.987,-6.434 -1.149,-2.298 -5.055,-3.446 -3.677,-1.379 -6.434,-1.609 -2.757,-0.46 -9.191,-0.689 -2.758,-0.23 -4.366,-0.23 -2.068,-2.068 -2.758,-6.434 -0.689,-4.596 0,-7.583 14.247,-1.149 35.617,-5.285 21.6,-4.136 30.331,-7.583 6.204,0 6.204,4.826 -2.068,18.842 -2.068,49.403 v 216.916 q 0,15.166 0.92,23.208 1.148,7.813 5.514,12.408 4.366,4.596 9.881,5.745 5.515,0.919 17.693,1.609 2.068,2.068 2.068,7.812 0,5.515 -2.068,7.583 -40.442,-0.919 -52.39,-0.919 -13.098,0 -52.621,0.919 -2.068,-2.068 -2.068,-7.583 0,-5.744 2.068,-7.812 12.179,-0.69 17.694,-1.609 5.514,-1.149 9.88,-5.745 4.366,-4.595 5.285,-12.408 1.149,-8.042 1.149,-23.208 z" style="-inkscape-font-specification:'Linux Libertine G'" id="path1310"/><path d="m 30223.251,40497.064 85.25,-1.379 q 6.894,0 6.894,-6.434 0,-14.017 -3.447,-24.127 -3.447,-10.34 -9.421,-15.396 -5.975,-5.285 -12.409,-7.582 -6.434,-2.298 -13.787,-2.298 -4.595,0 -9.191,0.919 -4.366,0.689 -11.719,4.136 -7.123,3.217 -13.098,8.962 -5.744,5.744 -11.259,17.004 -5.285,11.259 -7.813,26.195 z m 123.394,89.156 q 7.813,0.689 9.881,7.353 -31.71,40.902 -80.195,40.902 -46.186,0 -71.922,-30.102 -22.059,-25.276 -22.059,-69.625 0,-20.68 5.744,-38.833 5.975,-18.153 15.626,-31.021 9.651,-12.868 21.829,-22.289 12.408,-9.421 25.276,-13.787 13.098,-4.595 25.506,-4.595 79.505,0 79.505,81.803 0,8.042 -8.731,8.042 l -125.232,-0.919 q 0,39.752 14.936,64.569 10.34,17.004 23.897,25.506 13.787,8.272 27.574,8.272 19.761,0 32.17,-5.515 12.638,-5.744 26.195,-19.761 z" style="-inkscape-font-specification:'Linux Libertine G'" id="path1312"/><path d="m 30385.163,40427.899 h 21.6 q 0,-17.923 -0.23,-29.642 -0.23,-11.719 -0.46,-15.166 -0.229,-3.676 -0.459,-5.974 -0.23,-2.298 -0.23,-3.677 0,-2.068 2.298,-3.446 2.527,-1.379 7.812,-2.758 5.285,-1.608 7.813,-2.757 2.757,-1.149 7.123,-3.447 4.366,-2.298 7.124,-3.677 2.987,-1.378 4.595,-1.378 3.677,0 3.677,4.136 -1.838,19.072 -1.838,49.633 v 18.153 h 56.526 q 3.677,0 3.677,2.987 v 9.421 q 0,2.758 -3.677,4.366 -3.446,1.609 -7.582,1.609 h -48.944 v 119.028 q 0,23.208 3.217,33.318 3.446,10.111 12.408,10.111 21.37,0 38.604,-13.328 6.893,0.69 8.272,8.043 -13.557,15.166 -30.332,23.208 -16.544,7.813 -33.089,7.813 -36.305,0 -36.305,-46.417 v -141.776 h -27.804 q -2.298,0 -2.298,-2.758 v -6.204 q 0,-3.447 2.068,-6.434 2.068,-2.987 6.434,-2.987 z" style="-inkscape-font-specification:'Linux Libertine G'" id="path1314"/><path d="m 30641.286,40520.272 -37.225,9.881 q -44.578,11.719 -44.578,51.701 0,12.638 8.732,23.208 8.961,10.341 25.046,10.341 16.085,0 41.361,-20.451 6.664,-5.055 6.664,-12.179 z m 0,87.088 h -0.919 l -9.421,7.353 q -15.626,12.179 -25.506,15.855 -9.651,3.907 -25.736,3.907 -26.655,0 -42.97,-12.179 -16.314,-12.178 -16.314,-38.604 0,-23.438 21.37,-41.361 21.37,-18.153 56.297,-26.884 l 40.442,-9.881 q 2.757,-0.919 2.757,-5.515 0,-61.122 -38.144,-61.122 -15.625,0 -27.344,5.055 -11.719,4.825 -11.719,14.706 0,6.434 0.919,9.191 1.379,2.758 1.379,8.502 0,5.515 -5.745,10.57 -5.515,5.056 -14.936,5.056 -16.315,0 -16.315,-16.545 0,-12.408 11.26,-24.587 11.259,-12.178 29.412,-19.761 18.153,-7.813 36.995,-7.813 11.26,0 20.681,1.839 9.421,1.608 19.072,6.893 9.651,5.285 16.314,13.787 6.664,8.502 10.8,23.208 4.136,14.477 4.136,33.779 v 70.084 q 0,6.663 0,10.57 0.23,3.906 0.69,9.421 0.689,5.285 1.838,8.272 1.149,2.987 3.217,5.974 2.068,2.988 5.285,4.366 3.447,1.379 7.813,1.379 4.366,0 7.353,-1.838 2.987,-1.839 4.595,-3.677 1.609,-1.838 2.528,-1.838 1.379,0 3.677,2.757 2.527,2.758 2.527,5.055 0,1.609 -5.055,6.434 -4.826,4.826 -14.706,9.881 -9.881,4.826 -20.221,4.826 -8.732,0 -15.625,-2.758 -6.894,-2.757 -11.03,-7.123 -3.906,-4.596 -6.204,-8.732 -2.298,-4.136 -3.447,-8.502 z" style="-inkscape-font-specification:'Linux Libertine G'" id="path1316"/><path d="m 30792.398,40461.447 q 0,2.528 0.689,3.447 0.919,0.69 2.987,-2.527 9.421,-16.085 23.208,-27.574 13.787,-11.49 28.953,-11.49 13.557,0 20.911,7.353 7.353,7.124 7.353,15.166 0,8.962 -6.894,16.315 -6.664,7.353 -15.166,7.353 -4.366,0 -7.812,-1.838 -3.217,-2.068 -7.353,-6.894 l -4.136,-5.055 q -3.217,-3.217 -9.881,-3.217 -5.515,0 -21.6,22.978 -11.259,16.774 -11.259,31.481 v 65.488 q 0,10.11 0.459,16.544 0.46,6.434 2.298,11.49 2.068,4.825 4.136,7.353 2.068,2.298 7.124,4.136 5.285,1.608 10.11,2.298 4.826,0.459 14.476,1.149 2.068,2.068 2.068,7.812 0,5.515 -2.068,7.583 -40.442,-0.919 -56.986,-0.919 -14.247,0 -53.769,0.919 -2.068,-2.068 -2.068,-7.583 0,-5.744 2.068,-7.812 12.408,-0.69 17.923,-1.839 5.744,-1.149 10.11,-5.744 4.596,-4.596 5.745,-12.409 1.149,-7.812 1.149,-22.978 v -91.684 q 0,-10.57 -1.149,-16.085 -0.919,-5.744 -4.826,-9.191 -3.906,-3.447 -8.961,-4.596 -4.826,-1.149 -15.625,-2.068 -0.69,-2.297 -1.149,-6.663 -0.46,-4.366 0.229,-6.664 37.685,-4.826 59.285,-13.557 3.906,0 5.514,3.676 3.907,8.272 3.907,35.846 z" style="-inkscape-font-specification:'Linux Libertine G'" id="path1318"/><path d="m 30915.017,40347.934 q 0,-8.272 8.042,-15.395 8.042,-7.123 16.544,-7.123 9.192,0 15.855,7.812 6.664,7.583 6.664,16.545 0,7.812 -7.583,15.395 -7.353,7.353 -16.774,7.353 -8.502,0 -15.625,-7.583 -7.123,-7.812 -7.123,-17.004 z m 42.969,224.499 q 0,10.11 0.23,16.544 0.459,6.434 2.068,11.49 1.838,5.055 3.676,7.582 1.839,2.298 6.205,4.137 4.595,1.608 8.961,2.297 4.366,0.46 12.638,0.92 2.068,2.068 2.068,7.812 0,5.515 -2.068,7.583 -40.442,-0.919 -52.161,-0.919 -13.327,0 -52.85,0.919 -2.068,-2.068 -2.068,-7.583 0,-5.744 2.068,-7.812 8.502,-0.69 12.638,-1.149 4.136,-0.69 8.732,-2.298 4.825,-1.838 6.434,-4.136 1.838,-2.528 3.677,-7.353 1.838,-5.056 2.068,-11.49 0.459,-6.434 0.459,-16.544 v -91.684 q 0,-10.57 -1.149,-16.085 -0.919,-5.514 -4.825,-8.961 -3.677,-3.677 -8.962,-4.826 -5.055,-1.149 -15.625,-2.068 -0.689,-2.297 -1.149,-6.663 -0.46,-4.366 0.23,-6.664 44.578,-5.745 64.339,-13.557 6.204,0 6.204,3.217 -1.838,30.101 -1.838,53.539 z" style="-inkscape-font-specification:'Linux Libertine G'" id="path1320"/><path d="m 31127.94,40520.272 -37.225,9.881 q -44.578,11.719 -44.578,51.701 0,12.638 8.732,23.208 8.962,10.341 25.047,10.341 16.084,0 41.361,-20.451 6.663,-5.055 6.663,-12.179 z m 0,87.088 h -0.919 l -9.421,7.353 q -15.625,12.179 -25.506,15.855 -9.651,3.907 -25.736,3.907 -26.655,0 -42.969,-12.179 -16.315,-12.178 -16.315,-38.604 0,-23.438 21.37,-41.361 21.37,-18.153 56.297,-26.884 l 40.442,-9.881 q 2.757,-0.919 2.757,-5.515 0,-61.122 -38.144,-61.122 -15.625,0 -27.344,5.055 -11.719,4.825 -11.719,14.706 0,6.434 0.919,9.191 1.379,2.758 1.379,8.502 0,5.515 -5.745,10.57 -5.515,5.056 -14.936,5.056 -16.314,0 -16.314,-16.545 0,-12.408 11.259,-24.587 11.259,-12.178 29.412,-19.761 18.153,-7.813 36.996,-7.813 11.259,0 20.68,1.839 9.421,1.608 19.072,6.893 9.651,5.285 16.315,13.787 6.663,8.502 10.8,23.208 4.136,14.477 4.136,33.779 v 70.084 q 0,6.663 0,10.57 0.229,3.906 0.689,9.421 0.689,5.285 1.838,8.272 1.149,2.987 3.217,5.974 2.068,2.988 5.285,4.366 3.447,1.379 7.813,1.379 4.366,0 7.353,-1.838 2.987,-1.839 4.596,-3.677 1.608,-1.838 2.527,-1.838 1.379,0 3.677,2.757 2.527,2.758 2.527,5.055 0,1.609 -5.055,6.434 -4.825,4.826 -14.706,9.881 -9.881,4.826 -20.221,4.826 -8.732,0 -15.625,-2.758 -6.894,-2.757 -11.03,-7.123 -3.906,-4.596 -6.204,-8.732 -2.298,-4.136 -3.447,-8.502 z" style="-inkscape-font-specification:'Linux Libertine G'" id="path1322"/><path d="m 31281.35,40461.447 q 19.761,-22.059 38.374,-30.101 18.842,-8.043 38.833,-8.043 26.655,0 39.063,16.085 7.354,10.111 9.881,25.506 2.758,15.166 2.758,37.455 v 70.084 q 0,8.502 0.459,14.476 0.46,5.745 1.149,10.57 0.689,4.596 2.528,7.353 1.838,2.758 3.676,4.826 2.068,1.838 5.975,2.987 3.906,1.149 7.582,1.838 3.677,0.46 10.111,0.92 1.608,2.068 1.608,7.812 0,5.515 -1.608,7.583 -40.442,-0.919 -49.863,-0.919 -8.502,0 -48.025,0.919 -1.608,-2.068 -1.608,-7.583 0,-5.744 1.608,-7.812 10.34,-0.92 14.936,-2.069 4.825,-1.378 8.502,-5.744 3.906,-4.596 4.825,-12.408 0.92,-7.813 0.92,-22.749 v -71.463 q 0,-25.046 -5.515,-36.306 -4.136,-8.042 -11.03,-12.408 -6.893,-4.596 -14.017,-4.596 -13.787,0 -28.952,7.354 -14.936,7.353 -28.494,20.45 -8.042,8.962 -8.042,19.762 v 77.207 q 0,14.936 0.689,22.749 0.919,7.812 4.596,12.408 3.677,4.366 8.272,5.744 4.596,1.149 14.706,2.069 2.068,2.068 2.068,7.812 0,5.515 -2.068,7.583 -39.522,-0.919 -46.416,-0.919 -13.327,0 -51.931,0.919 -2.068,-2.068 -2.068,-7.583 0,-5.744 2.068,-7.812 8.042,-0.69 12.179,-1.149 4.365,-0.69 8.731,-2.298 4.596,-1.838 6.204,-4.366 1.839,-2.528 3.447,-7.353 1.838,-5.055 2.068,-11.26 0.46,-6.434 0.46,-16.544 v -91.684 q 0,-10.57 -1.149,-16.085 -0.919,-5.744 -4.826,-9.191 -3.906,-3.447 -8.961,-4.596 -5.055,-1.149 -15.855,-2.068 -0.69,-2.297 -1.149,-6.663 -0.46,-4.366 0.23,-6.664 37.684,-4.826 59.284,-13.557 4.136,0 5.744,3.676 3.677,7.813 3.677,35.846 0,6.205 3.906,0.69 0.23,-0.46 0.46,-0.69 z" style="-inkscape-font-specification:'Linux Libertine G'" id="path1324"/><path d="m 31605.403,40497.064 85.25,-1.379 q 6.893,0 6.893,-6.434 0,-14.017 -3.447,-24.127 -3.446,-10.34 -9.421,-15.396 -5.974,-5.285 -12.408,-7.582 -6.434,-2.298 -13.787,-2.298 -4.596,0 -9.191,0.919 -4.366,0.689 -11.719,4.136 -7.124,3.217 -13.098,8.962 -5.745,5.744 -11.259,17.004 -5.285,11.259 -7.813,26.195 z m 123.394,89.156 q 7.812,0.689 9.88,7.353 -31.71,40.902 -80.194,40.902 -46.187,0 -71.922,-30.102 -22.06,-25.276 -22.06,-69.625 0,-20.68 5.745,-38.833 5.974,-18.153 15.625,-31.021 9.651,-12.868 21.83,-22.289 12.408,-9.421 25.276,-13.787 13.098,-4.595 25.506,-4.595 79.505,0 79.505,81.803 0,8.042 -8.732,8.042 l -125.232,-0.919 q 0,39.752 14.936,64.569 10.34,17.004 23.898,25.506 13.787,8.272 27.574,8.272 19.761,0 32.169,-5.515 12.639,-5.744 26.196,-19.761 z" style="-inkscape-font-specification:'Linux Libertine G'" id="path1326"/><path d="m 31833.722,40461.447 q 19.762,-22.059 38.374,-30.101 18.842,-8.043 38.834,-8.043 26.654,0 39.063,16.085 7.353,10.111 9.88,25.506 2.758,15.166 2.758,37.455 v 70.084 q 0,8.502 0.459,14.476 0.46,5.745 1.149,10.57 0.69,4.596 2.528,7.353 1.838,2.758 3.677,4.826 2.068,1.838 5.974,2.987 3.906,1.149 7.583,1.838 3.676,0.46 10.11,0.92 1.609,2.068 1.609,7.812 0,5.515 -1.609,7.583 -40.442,-0.919 -49.863,-0.919 -8.502,0 -48.025,0.919 -1.608,-2.068 -1.608,-7.583 0,-5.744 1.608,-7.812 10.341,-0.92 14.936,-2.069 4.826,-1.378 8.502,-5.744 3.907,-4.596 4.826,-12.408 0.919,-7.813 0.919,-22.749 v -71.463 q 0,-25.046 -5.515,-36.306 -4.136,-8.042 -11.03,-12.408 -6.893,-4.596 -14.016,-4.596 -13.787,0 -28.953,7.354 -14.936,7.353 -28.493,20.45 -8.043,8.962 -8.043,19.762 v 77.207 q 0,14.936 0.69,22.749 0.919,7.812 4.595,12.408 3.677,4.366 8.273,5.744 4.595,1.149 14.706,2.069 2.068,2.068 2.068,7.812 0,5.515 -2.068,7.583 -39.523,-0.919 -46.417,-0.919 -13.327,0 -51.931,0.919 -2.068,-2.068 -2.068,-7.583 0,-5.744 2.068,-7.812 8.043,-0.69 12.179,-1.149 4.366,-0.69 8.732,-2.298 4.595,-1.838 6.204,-4.366 1.838,-2.528 3.447,-7.353 1.838,-5.055 2.068,-11.26 0.459,-6.434 0.459,-16.544 v -91.684 q 0,-10.57 -1.149,-16.085 -0.919,-5.744 -4.825,-9.191 -3.907,-3.447 -8.962,-4.596 -5.055,-1.149 -15.855,-2.068 -0.689,-2.297 -1.149,-6.663 -0.459,-4.366 0.23,-6.664 37.685,-4.826 59.284,-13.557 4.136,0 5.745,3.676 3.676,7.813 3.676,35.846 0,6.205 3.907,0.69 0.229,-0.46 0.459,-0.69 z" style="-inkscape-font-specification:'Linux Libertine G'" id="path1328"/><path d="m 32179.231,40587.139 q -11.259,18.613 -24.357,29.412 -12.868,10.8 -25.047,14.247 -11.948,3.677 -27.344,3.677 -43.659,0 -68.475,-28.034 -24.587,-28.034 -24.587,-74.45 0,-24.127 8.502,-45.038 8.502,-20.91 22.289,-34.467 13.787,-13.787 30.791,-21.37 17.234,-7.813 34.927,-7.813 33.319,0 52.62,12.409 19.302,12.408 19.302,32.169 0,9.881 -7.353,15.396 -7.123,5.515 -15.625,5.515 -16.085,0 -17.923,-17.004 -0.919,-7.353 -2.298,-12.179 -1.379,-5.055 -4.826,-10.11 -3.216,-5.285 -9.88,-7.813 -6.664,-2.757 -16.545,-2.757 -23.667,0 -38.603,22.289 -14.936,22.289 -14.936,60.433 0,40.442 18.153,65.258 18.153,24.587 44.808,24.587 32.399,0 56.526,-31.021 7.353,0.92 9.881,6.664 z" style="-inkscape-font-specification:'Linux Libertine G'" id="path1330"/><path d="m 32279.101,40705.248 q -19.072,33.778 -45.727,33.778 -9.421,0 -15.855,-5.055 -6.204,-5.055 -6.204,-12.408 0,-5.975 5.745,-13.098 5.744,-7.123 14.935,-7.123 2.528,0 6.205,0.689 3.906,0.689 7.353,0.689 16.085,0 23.667,-13.557 11.03,-22.519 18.383,-43.199 2.987,-8.732 0.23,-21.6 -2.528,-12.408 -6.894,-22.748 l -53.309,-123.854 q -9.651,-22.289 -15.626,-28.034 -5.974,-5.744 -21.37,-7.123 -2.068,-2.068 -2.068,-7.812 0,-5.745 2.068,-7.813 18.843,0.919 38.144,0.919 18.153,0 53.081,-0.919 2.068,2.068 2.068,7.813 0,5.744 -2.068,7.812 -10.341,0.919 -15.626,2.758 -5.055,1.608 -5.974,5.514 -0.69,3.907 0.459,7.813 1.149,3.906 4.596,11.949 0.689,1.608 1.149,2.527 l 41.821,97.888 q 5.744,13.328 11.259,0.46 l 46.646,-107.769 q 1.838,-4.366 2.068,-7.353 0,-3.217 -1.608,-5.285 -1.379,-2.298 -3.447,-3.676 -2.068,-1.609 -5.745,-2.528 -3.446,-0.919 -6.663,-1.379 -2.988,-0.459 -7.353,-0.919 -2.069,-2.068 -2.069,-7.812 0,-5.745 2.069,-7.813 34.927,0.919 42.969,0.919 9.881,0 33.319,-0.919 2.068,2.068 2.068,7.813 0,5.744 -2.068,7.812 -12.179,0.919 -22.289,9.881 -10.111,8.732 -15.855,20.221 -26.885,56.297 -83.182,192.099 -9.651,23.438 -19.302,40.442 z" style="-inkscape-font-specification:'Linux Libertine G'" id="path1332"/><path d="m 32598.644,40587.139 q -11.259,18.613 -24.357,29.412 -12.868,10.8 -25.046,14.247 -11.949,3.677 -27.344,3.677 -43.659,0 -68.476,-28.034 -24.587,-28.034 -24.587,-74.45 0,-24.127 8.502,-45.038 8.502,-20.91 22.289,-34.467 13.787,-13.787 30.791,-21.37 17.234,-7.813 34.927,-7.813 33.319,0 52.621,12.409 19.302,12.408 19.302,32.169 0,9.881 -7.353,15.396 -7.124,5.515 -15.626,5.515 -16.085,0 -17.923,-17.004 -0.919,-7.353 -2.298,-12.179 -1.378,-5.055 -4.825,-10.11 -3.217,-5.285 -9.881,-7.813 -6.664,-2.757 -16.544,-2.757 -23.668,0 -38.604,22.289 -14.936,22.289 -14.936,60.433 0,40.442 18.153,65.258 18.153,24.587 44.808,24.587 32.399,0 56.527,-31.021 7.353,0.92 9.88,6.664 z" style="-inkscape-font-specification:'Linux Libertine G'" id="path1334"/><path d="m 32647.273,40572.433 v -205.656 q 0,-9.422 -0.46,-15.626 -0.23,-6.204 -1.838,-10.57 -1.609,-4.366 -2.987,-6.434 -1.149,-2.298 -5.056,-3.446 -3.676,-1.379 -6.434,-1.609 -2.757,-0.46 -9.191,-0.689 -2.757,-0.23 -4.366,-0.23 -2.068,-2.068 -2.757,-6.434 -0.69,-4.596 0,-7.583 14.246,-1.149 35.616,-5.285 21.6,-4.136 30.332,-7.583 6.204,0 6.204,4.826 -2.068,18.842 -2.068,49.403 v 216.916 q 0,15.166 0.919,23.208 1.149,7.813 5.515,12.408 4.366,4.596 9.88,5.745 5.515,0.919 17.694,1.609 2.068,2.068 2.068,7.812 0,5.515 -2.068,7.583 -40.442,-0.919 -52.391,-0.919 -13.098,0 -52.62,0.919 -2.068,-2.068 -2.068,-7.583 0,-5.744 2.068,-7.812 12.178,-0.69 17.693,-1.609 5.515,-1.149 9.881,-5.745 4.366,-4.595 5.285,-12.408 1.149,-8.042 1.149,-23.208 z" style="-inkscape-font-specification:'Linux Libertine G'" id="path1336"/><path d="m 32735.654,40533.37 q 0,-46.646 25.965,-77.208 28.034,-32.859 73.761,-32.859 20.91,0 37.914,6.434 17.004,6.204 28.034,16.775 11.029,10.34 18.612,24.357 7.583,14.016 10.8,28.723 3.447,14.476 3.447,29.642 0,22.748 -7.583,43.429 -7.583,20.68 -22.978,35.616 -26.885,26.196 -69.165,26.196 -19.302,0 -35.847,-5.745 -16.544,-5.974 -28.033,-15.855 -11.26,-10.111 -19.302,-23.208 -8.042,-13.098 -11.949,-27.344 -3.676,-14.247 -3.676,-28.953 z m 92.602,-93.522 q -52.16,0 -52.16,82.722 0,14.936 3.446,30.561 3.447,15.396 10.57,30.561 7.124,15.166 20.451,24.817 13.328,9.651 30.561,9.651 9.192,0 17.694,-3.447 8.502,-3.447 16.774,-11.029 8.272,-7.813 13.098,-22.979 5.055,-15.395 5.055,-36.535 0,-50.323 -17.464,-77.208 -17.234,-27.114 -48.025,-27.114 z" style="-inkscape-font-specification:'Linux Libertine G'" id="path1338"/><path d="m 33025.555,40474.086 q -4.366,5.055 -5.974,9.421 -1.379,4.136 -1.379,11.259 v 85.709 q 0,12.409 1.838,17.004 2.068,4.596 9.421,11.26 5.745,5.055 15.396,7.583 9.881,2.298 17.923,2.298 18.842,0 32.4,-7.813 13.557,-8.043 20.68,-21.14 7.123,-13.328 10.111,-27.574 3.216,-14.247 3.216,-30.102 0,-38.833 -16.544,-62.961 -16.315,-24.127 -39.523,-24.127 -10.11,0 -24.127,8.732 -14.017,8.732 -23.438,20.451 z m -7.353,-17.464 q 0,2.528 1.379,2.987 1.378,0.46 2.298,-0.919 14.016,-16.315 31.02,-25.736 17.234,-9.651 33.549,-9.651 23.208,0 42.51,13.558 19.531,13.557 30.101,35.616 10.57,22.059 10.57,46.876 0,54.918 -34.697,88.926 -27.574,26.196 -69.395,26.196 -22.978,0 -40.901,-7.124 -3.677,-1.838 -5.055,-1.378 -1.379,0.459 -1.379,4.825 v 50.782 q 0,10.341 0.46,16.545 0.459,6.434 2.297,11.489 1.839,5.055 3.907,7.353 2.068,2.528 7.123,4.136 5.285,1.838 10.11,2.298 5.056,0.689 14.707,1.149 2.068,2.068 2.068,7.583 0,5.744 -2.068,7.812 -40.442,-0.919 -56.987,-0.919 -13.327,0 -52.85,0.919 -2.068,-2.068 -2.068,-7.812 0,-5.515 2.068,-7.583 12.179,-0.69 17.693,-1.838 5.515,-0.92 9.881,-5.515 4.366,-4.596 5.285,-12.638 1.149,-7.813 1.149,-22.979 v -200.831 q 0,-10.57 -1.149,-16.085 -0.919,-5.744 -4.825,-9.191 -3.907,-3.447 -8.962,-4.596 -4.825,-1.149 -15.625,-2.068 -0.69,-2.297 -1.149,-6.663 -0.46,-4.366 0.23,-6.664 37.684,-4.826 59.284,-13.557 3.906,0 5.515,3.676 3.906,8.272 3.906,31.021 z" style="-inkscape-font-specification:'Linux Libertine G'" id="path1340"/><path d="m 33238.708,40497.064 85.25,-1.379 q 6.894,0 6.894,-6.434 0,-14.017 -3.447,-24.127 -3.447,-10.34 -9.421,-15.396 -5.975,-5.285 -12.409,-7.582 -6.434,-2.298 -13.787,-2.298 -4.595,0 -9.191,0.919 -4.366,0.689 -11.719,4.136 -7.123,3.217 -13.098,8.962 -5.744,5.744 -11.259,17.004 -5.285,11.259 -7.813,26.195 z m 123.394,89.156 q 7.813,0.689 9.881,7.353 -31.71,40.902 -80.195,40.902 -46.186,0 -71.922,-30.102 -22.059,-25.276 -22.059,-69.625 0,-20.68 5.744,-38.833 5.975,-18.153 15.626,-31.021 9.651,-12.868 21.829,-22.289 12.408,-9.421 25.276,-13.787 13.098,-4.595 25.506,-4.595 79.506,0 79.506,81.803 0,8.042 -8.732,8.042 l -125.232,-0.919 q 0,39.752 14.936,64.569 10.34,17.004 23.897,25.506 13.787,8.272 27.574,8.272 19.762,0 32.17,-5.515 12.638,-5.744 26.195,-19.761 z" style="-inkscape-font-specification:'Linux Libertine G'" id="path1342"/><path d="m 33545.154,40571.514 v -89.386 q 0,-10.57 -1.609,-15.166 -1.378,-4.595 -6.434,-10.34 -14.706,-16.774 -38.144,-16.774 -28.493,0 -43.888,23.438 -13.558,18.842 -13.558,62.501 0,41.361 15.396,64.11 15.395,22.518 36.306,22.518 18.153,0 44.348,-22.518 4.825,-4.137 6.204,-7.583 1.379,-3.677 1.379,-10.8 z m -5.285,34.697 q -18.842,14.936 -31.71,21.37 -13.787,6.894 -27.115,6.894 -37.225,0 -58.595,-27.804 -21.37,-27.804 -21.37,-72.382 0,-50.323 32.4,-82.722 14.936,-14.247 31.48,-21.14 16.775,-7.124 39.064,-7.124 6.893,0 15.625,2.068 8.732,1.839 14.706,3.907 5.974,2.068 6.434,2.068 4.366,0 4.366,-4.366 v -60.203 q 0,-9.422 -0.46,-15.626 -0.229,-6.204 -1.838,-10.57 -1.608,-4.366 -2.987,-6.434 -1.149,-2.298 -5.055,-3.446 -3.677,-1.379 -6.434,-1.609 -2.758,-0.46 -9.192,-0.689 -2.757,-0.23 -4.366,-0.23 -2.068,-2.068 -2.757,-6.434 -0.689,-4.596 0,-7.583 14.247,-1.149 35.616,-5.285 21.6,-4.136 30.332,-7.583 6.204,0 6.204,4.826 -2.068,18.842 -2.068,49.403 v 213.239 q 0,18.153 6.434,25.506 6.434,7.124 28.034,8.732 2.068,2.068 2.068,6.434 0,4.366 -2.068,6.434 -39.753,4.366 -56.987,18.613 -5.285,1.378 -8.961,0 -5.056,-16.315 -5.056,-27.574 0,-1.609 -0.919,-2.069 -0.919,-0.459 -2.298,0 -1.378,0.46 -2.527,1.379 z" style="-inkscape-font-specification:'Linux Libertine G'" id="path1344"/><path d="m 33652.837,40347.934 q 0,-8.272 8.042,-15.395 8.043,-7.123 16.545,-7.123 9.191,0 15.855,7.812 6.664,7.583 6.664,16.545 0,7.812 -7.583,15.395 -7.353,7.353 -16.775,7.353 -8.502,0 -15.625,-7.583 -7.123,-7.812 -7.123,-17.004 z m 42.969,224.499 q 0,10.11 0.23,16.544 0.46,6.434 2.068,11.49 1.839,5.055 3.677,7.582 1.838,2.298 6.204,4.137 4.596,1.608 8.961,2.297 4.366,0.46 12.639,0.92 2.068,2.068 2.068,7.812 0,5.515 -2.068,7.583 -40.442,-0.919 -52.161,-0.919 -13.328,0 -52.851,0.919 -2.068,-2.068 -2.068,-7.583 0,-5.744 2.068,-7.812 8.502,-0.69 12.639,-1.149 4.136,-0.69 8.731,-2.298 4.826,-1.838 6.434,-4.136 1.839,-2.528 3.677,-7.353 1.838,-5.056 2.068,-11.49 0.459,-6.434 0.459,-16.544 v -91.684 q 0,-10.57 -1.148,-16.085 -0.92,-5.514 -4.826,-8.961 -3.676,-3.677 -8.961,-4.826 -5.056,-1.149 -15.626,-2.068 -0.689,-2.297 -1.149,-6.663 -0.459,-4.366 0.23,-6.664 44.578,-5.745 64.34,-13.557 6.204,0 6.204,3.217 -1.839,30.101 -1.839,53.539 z" style="-inkscape-font-specification:'Linux Libertine G'" id="path1346"/><path d="m 33865.76,40520.272 -37.225,9.881 q -44.578,11.719 -44.578,51.701 0,12.638 8.732,23.208 8.962,10.341 25.047,10.341 16.084,0 41.361,-20.451 6.663,-5.055 6.663,-12.179 z m 0,87.088 h -0.919 l -9.421,7.353 q -15.625,12.179 -25.506,15.855 -9.651,3.907 -25.736,3.907 -26.655,0 -42.969,-12.179 -16.315,-12.178 -16.315,-38.604 0,-23.438 21.37,-41.361 21.37,-18.153 56.297,-26.884 l 40.442,-9.881 q 2.757,-0.919 2.757,-5.515 0,-61.122 -38.144,-61.122 -15.625,0 -27.344,5.055 -11.719,4.825 -11.719,14.706 0,6.434 0.919,9.191 1.379,2.758 1.379,8.502 0,5.515 -5.745,10.57 -5.515,5.056 -14.936,5.056 -16.314,0 -16.314,-16.545 0,-12.408 11.259,-24.587 11.26,-12.178 29.412,-19.761 18.153,-7.813 36.996,-7.813 11.259,0 20.68,1.839 9.421,1.608 19.072,6.893 9.651,5.285 16.315,13.787 6.664,8.502 10.8,23.208 4.136,14.477 4.136,33.779 v 70.084 q 0,6.663 0,10.57 0.23,3.906 0.689,9.421 0.689,5.285 1.838,8.272 1.149,2.987 3.217,5.974 2.068,2.988 5.285,4.366 3.447,1.379 7.813,1.379 4.366,0 7.353,-1.838 2.987,-1.839 4.596,-3.677 1.608,-1.838 2.527,-1.838 1.379,0 3.677,2.757 2.528,2.758 2.528,5.055 0,1.609 -5.056,6.434 -4.825,4.826 -14.706,9.881 -9.881,4.826 -20.221,4.826 -8.732,0 -15.625,-2.758 -6.894,-2.757 -11.03,-7.123 -3.906,-4.596 -6.204,-8.732 -2.298,-4.136 -3.447,-8.502 z" style="-inkscape-font-specification:'Linux Libertine G'" id="path1348"/></g></g><style type="text/css" id="style87014">
	.st0{fill:#77B3D4;}
	.st1{opacity:0.2;}
	.st2{fill:#231F20;}
	.st3{fill:#FFFFFF;}
</style></svg>